%TF.GenerationSoftware,KiCad,Pcbnew,(6.0.1-0)*%
%TF.CreationDate,2022-07-02T14:58:06-04:00*%
%TF.ProjectId,Saturn 8pin mini DIN mod,53617475-726e-4203-9870-696e206d696e,rev?*%
%TF.SameCoordinates,Original*%
%TF.FileFunction,Legend,Top*%
%TF.FilePolarity,Positive*%
%FSLAX46Y46*%
G04 Gerber Fmt 4.6, Leading zero omitted, Abs format (unit mm)*
G04 Created by KiCad (PCBNEW (6.0.1-0)) date 2022-07-02 14:58:06*
%MOMM*%
%LPD*%
G01*
G04 APERTURE LIST*
%ADD10C,0.075000*%
%ADD11C,0.080000*%
%ADD12C,0.120000*%
G04 APERTURE END LIST*
D10*
X151940000Y-110965714D02*
X152140000Y-111265714D01*
X152140000Y-110965714D02*
X151940000Y-111265714D01*
X144150000Y-110945714D02*
X144350000Y-111245714D01*
X144350000Y-110945714D02*
X144150000Y-111245714D01*
D11*
X149327619Y-103480952D02*
X149137142Y-103480952D01*
X149137142Y-103080952D01*
X149632380Y-103214285D02*
X149632380Y-103480952D01*
X149460952Y-103214285D02*
X149460952Y-103423809D01*
X149480000Y-103461904D01*
X149518095Y-103480952D01*
X149575238Y-103480952D01*
X149613333Y-103461904D01*
X149632380Y-103442857D01*
X149822857Y-103480952D02*
X149822857Y-103214285D01*
X149822857Y-103252380D02*
X149841904Y-103233333D01*
X149880000Y-103214285D01*
X149937142Y-103214285D01*
X149975238Y-103233333D01*
X149994285Y-103271428D01*
X149994285Y-103480952D01*
X149994285Y-103271428D02*
X150013333Y-103233333D01*
X150051428Y-103214285D01*
X150108571Y-103214285D01*
X150146666Y-103233333D01*
X150165714Y-103271428D01*
X150165714Y-103480952D01*
X150527619Y-103480952D02*
X150527619Y-103271428D01*
X150508571Y-103233333D01*
X150470476Y-103214285D01*
X150394285Y-103214285D01*
X150356190Y-103233333D01*
X150527619Y-103461904D02*
X150489523Y-103480952D01*
X150394285Y-103480952D01*
X150356190Y-103461904D01*
X150337142Y-103423809D01*
X150337142Y-103385714D01*
X150356190Y-103347619D01*
X150394285Y-103328571D01*
X150489523Y-103328571D01*
X150527619Y-103309523D01*
X151003809Y-103461904D02*
X151060952Y-103480952D01*
X151156190Y-103480952D01*
X151194285Y-103461904D01*
X151213333Y-103442857D01*
X151232380Y-103404761D01*
X151232380Y-103366666D01*
X151213333Y-103328571D01*
X151194285Y-103309523D01*
X151156190Y-103290476D01*
X151080000Y-103271428D01*
X151041904Y-103252380D01*
X151022857Y-103233333D01*
X151003809Y-103195238D01*
X151003809Y-103157142D01*
X151022857Y-103119047D01*
X151041904Y-103100000D01*
X151080000Y-103080952D01*
X151175238Y-103080952D01*
X151232380Y-103100000D01*
X151365714Y-103214285D02*
X151460952Y-103480952D01*
X151556190Y-103214285D02*
X151460952Y-103480952D01*
X151422857Y-103576190D01*
X151403809Y-103595238D01*
X151365714Y-103614285D01*
X151708571Y-103214285D02*
X151708571Y-103480952D01*
X151708571Y-103252380D02*
X151727619Y-103233333D01*
X151765714Y-103214285D01*
X151822857Y-103214285D01*
X151860952Y-103233333D01*
X151880000Y-103271428D01*
X151880000Y-103480952D01*
X152241904Y-103461904D02*
X152203809Y-103480952D01*
X152127619Y-103480952D01*
X152089523Y-103461904D01*
X152070476Y-103442857D01*
X152051428Y-103404761D01*
X152051428Y-103290476D01*
X152070476Y-103252380D01*
X152089523Y-103233333D01*
X152127619Y-103214285D01*
X152203809Y-103214285D01*
X152241904Y-103233333D01*
X141404285Y-109734761D02*
X141670952Y-109734761D01*
X141251904Y-109830000D02*
X141537619Y-109925238D01*
X141537619Y-109677619D01*
X141270952Y-109563333D02*
X141270952Y-109296666D01*
X141670952Y-109468095D01*
X141270952Y-109068095D02*
X141270952Y-109030000D01*
X141290000Y-108991904D01*
X141309047Y-108972857D01*
X141347142Y-108953809D01*
X141423333Y-108934761D01*
X141518571Y-108934761D01*
X141594761Y-108953809D01*
X141632857Y-108972857D01*
X141651904Y-108991904D01*
X141670952Y-109030000D01*
X141670952Y-109068095D01*
X141651904Y-109106190D01*
X141632857Y-109125238D01*
X141594761Y-109144285D01*
X141518571Y-109163333D01*
X141423333Y-109163333D01*
X141347142Y-109144285D01*
X141309047Y-109125238D01*
X141290000Y-109106190D01*
X141270952Y-109068095D01*
X150521904Y-110280952D02*
X150521904Y-110566666D01*
X150502857Y-110623809D01*
X150464761Y-110661904D01*
X150407619Y-110680952D01*
X150369523Y-110680952D01*
X150864761Y-110661904D02*
X150826666Y-110680952D01*
X150750476Y-110680952D01*
X150712380Y-110661904D01*
X150693333Y-110623809D01*
X150693333Y-110471428D01*
X150712380Y-110433333D01*
X150750476Y-110414285D01*
X150826666Y-110414285D01*
X150864761Y-110433333D01*
X150883809Y-110471428D01*
X150883809Y-110509523D01*
X150693333Y-110547619D01*
X150998095Y-110414285D02*
X151150476Y-110414285D01*
X151055238Y-110680952D02*
X151055238Y-110338095D01*
X151074285Y-110300000D01*
X151112380Y-110280952D01*
X151150476Y-110280952D01*
X151226666Y-110414285D02*
X151379047Y-110414285D01*
X151283809Y-110680952D02*
X151283809Y-110338095D01*
X151302857Y-110300000D01*
X151340952Y-110280952D01*
X151379047Y-110280952D01*
X152045714Y-110642857D02*
X152026666Y-110661904D01*
X151969523Y-110680952D01*
X151931428Y-110680952D01*
X151874285Y-110661904D01*
X151836190Y-110623809D01*
X151817142Y-110585714D01*
X151798095Y-110509523D01*
X151798095Y-110452380D01*
X151817142Y-110376190D01*
X151836190Y-110338095D01*
X151874285Y-110300000D01*
X151931428Y-110280952D01*
X151969523Y-110280952D01*
X152026666Y-110300000D01*
X152045714Y-110319047D01*
X152217142Y-110680952D02*
X152217142Y-110280952D01*
X152388571Y-110680952D02*
X152388571Y-110471428D01*
X152369523Y-110433333D01*
X152331428Y-110414285D01*
X152274285Y-110414285D01*
X152236190Y-110433333D01*
X152217142Y-110452380D01*
X152731428Y-110661904D02*
X152693333Y-110680952D01*
X152617142Y-110680952D01*
X152579047Y-110661904D01*
X152560000Y-110623809D01*
X152560000Y-110471428D01*
X152579047Y-110433333D01*
X152617142Y-110414285D01*
X152693333Y-110414285D01*
X152731428Y-110433333D01*
X152750476Y-110471428D01*
X152750476Y-110509523D01*
X152560000Y-110547619D01*
X152921904Y-110414285D02*
X152921904Y-110680952D01*
X152921904Y-110452380D02*
X152940952Y-110433333D01*
X152979047Y-110414285D01*
X153036190Y-110414285D01*
X153074285Y-110433333D01*
X153093333Y-110471428D01*
X153093333Y-110680952D01*
X153302857Y-110661904D02*
X153302857Y-110680952D01*
X153283809Y-110719047D01*
X153264761Y-110738095D01*
X153760000Y-110319047D02*
X153779047Y-110300000D01*
X153817142Y-110280952D01*
X153912380Y-110280952D01*
X153950476Y-110300000D01*
X153969523Y-110319047D01*
X153988571Y-110357142D01*
X153988571Y-110395238D01*
X153969523Y-110452380D01*
X153740952Y-110680952D01*
X153988571Y-110680952D01*
X154236190Y-110280952D02*
X154274285Y-110280952D01*
X154312380Y-110300000D01*
X154331428Y-110319047D01*
X154350476Y-110357142D01*
X154369523Y-110433333D01*
X154369523Y-110528571D01*
X154350476Y-110604761D01*
X154331428Y-110642857D01*
X154312380Y-110661904D01*
X154274285Y-110680952D01*
X154236190Y-110680952D01*
X154198095Y-110661904D01*
X154179047Y-110642857D01*
X154160000Y-110604761D01*
X154140952Y-110528571D01*
X154140952Y-110433333D01*
X154160000Y-110357142D01*
X154179047Y-110319047D01*
X154198095Y-110300000D01*
X154236190Y-110280952D01*
X154521904Y-110319047D02*
X154540952Y-110300000D01*
X154579047Y-110280952D01*
X154674285Y-110280952D01*
X154712380Y-110300000D01*
X154731428Y-110319047D01*
X154750476Y-110357142D01*
X154750476Y-110395238D01*
X154731428Y-110452380D01*
X154502857Y-110680952D01*
X154750476Y-110680952D01*
X154902857Y-110319047D02*
X154921904Y-110300000D01*
X154960000Y-110280952D01*
X155055238Y-110280952D01*
X155093333Y-110300000D01*
X155112380Y-110319047D01*
X155131428Y-110357142D01*
X155131428Y-110395238D01*
X155112380Y-110452380D01*
X154883809Y-110680952D01*
X155131428Y-110680952D01*
X141246190Y-102863690D02*
X140960476Y-102863690D01*
X141103333Y-102863690D02*
X141103333Y-102363690D01*
X141055714Y-102435119D01*
X141008095Y-102482738D01*
X140960476Y-102506547D01*
X141555714Y-102363690D02*
X141603333Y-102363690D01*
X141650952Y-102387500D01*
X141674761Y-102411309D01*
X141698571Y-102458928D01*
X141722380Y-102554166D01*
X141722380Y-102673214D01*
X141698571Y-102768452D01*
X141674761Y-102816071D01*
X141650952Y-102839880D01*
X141603333Y-102863690D01*
X141555714Y-102863690D01*
X141508095Y-102839880D01*
X141484285Y-102816071D01*
X141460476Y-102768452D01*
X141436666Y-102673214D01*
X141436666Y-102554166D01*
X141460476Y-102458928D01*
X141484285Y-102411309D01*
X141508095Y-102387500D01*
X141555714Y-102363690D01*
X142031904Y-102363690D02*
X142079523Y-102363690D01*
X142127142Y-102387500D01*
X142150952Y-102411309D01*
X142174761Y-102458928D01*
X142198571Y-102554166D01*
X142198571Y-102673214D01*
X142174761Y-102768452D01*
X142150952Y-102816071D01*
X142127142Y-102839880D01*
X142079523Y-102863690D01*
X142031904Y-102863690D01*
X141984285Y-102839880D01*
X141960476Y-102816071D01*
X141936666Y-102768452D01*
X141912857Y-102673214D01*
X141912857Y-102554166D01*
X141936666Y-102458928D01*
X141960476Y-102411309D01*
X141984285Y-102387500D01*
X142031904Y-102363690D01*
X142627142Y-102530357D02*
X142627142Y-102863690D01*
X142412857Y-102530357D02*
X142412857Y-102792261D01*
X142436666Y-102839880D01*
X142484285Y-102863690D01*
X142555714Y-102863690D01*
X142603333Y-102839880D01*
X142627142Y-102816071D01*
X143031904Y-102601785D02*
X142865238Y-102601785D01*
X142865238Y-102863690D02*
X142865238Y-102363690D01*
X143103333Y-102363690D01*
X141710476Y-103668690D02*
X141424761Y-103668690D01*
X141567619Y-103668690D02*
X141567619Y-103168690D01*
X141520000Y-103240119D01*
X141472380Y-103287738D01*
X141424761Y-103311547D01*
X142139047Y-103168690D02*
X142043809Y-103168690D01*
X141996190Y-103192500D01*
X141972380Y-103216309D01*
X141924761Y-103287738D01*
X141900952Y-103382976D01*
X141900952Y-103573452D01*
X141924761Y-103621071D01*
X141948571Y-103644880D01*
X141996190Y-103668690D01*
X142091428Y-103668690D01*
X142139047Y-103644880D01*
X142162857Y-103621071D01*
X142186666Y-103573452D01*
X142186666Y-103454404D01*
X142162857Y-103406785D01*
X142139047Y-103382976D01*
X142091428Y-103359166D01*
X141996190Y-103359166D01*
X141948571Y-103382976D01*
X141924761Y-103406785D01*
X141900952Y-103454404D01*
X142329523Y-103168690D02*
X142496190Y-103668690D01*
X142662857Y-103168690D01*
X149012857Y-109092380D02*
X149084285Y-109116190D01*
X149203333Y-109116190D01*
X149250952Y-109092380D01*
X149274761Y-109068571D01*
X149298571Y-109020952D01*
X149298571Y-108973333D01*
X149274761Y-108925714D01*
X149250952Y-108901904D01*
X149203333Y-108878095D01*
X149108095Y-108854285D01*
X149060476Y-108830476D01*
X149036666Y-108806666D01*
X149012857Y-108759047D01*
X149012857Y-108711428D01*
X149036666Y-108663809D01*
X149060476Y-108640000D01*
X149108095Y-108616190D01*
X149227142Y-108616190D01*
X149298571Y-108640000D01*
X149727142Y-109116190D02*
X149727142Y-108854285D01*
X149703333Y-108806666D01*
X149655714Y-108782857D01*
X149560476Y-108782857D01*
X149512857Y-108806666D01*
X149727142Y-109092380D02*
X149679523Y-109116190D01*
X149560476Y-109116190D01*
X149512857Y-109092380D01*
X149489047Y-109044761D01*
X149489047Y-108997142D01*
X149512857Y-108949523D01*
X149560476Y-108925714D01*
X149679523Y-108925714D01*
X149727142Y-108901904D01*
X149893809Y-108782857D02*
X150084285Y-108782857D01*
X149965238Y-108616190D02*
X149965238Y-109044761D01*
X149989047Y-109092380D01*
X150036666Y-109116190D01*
X150084285Y-109116190D01*
X150465238Y-108782857D02*
X150465238Y-109116190D01*
X150250952Y-108782857D02*
X150250952Y-109044761D01*
X150274761Y-109092380D01*
X150322380Y-109116190D01*
X150393809Y-109116190D01*
X150441428Y-109092380D01*
X150465238Y-109068571D01*
X150703333Y-109116190D02*
X150703333Y-108782857D01*
X150703333Y-108878095D02*
X150727142Y-108830476D01*
X150750952Y-108806666D01*
X150798571Y-108782857D01*
X150846190Y-108782857D01*
X151012857Y-108782857D02*
X151012857Y-109116190D01*
X151012857Y-108830476D02*
X151036666Y-108806666D01*
X151084285Y-108782857D01*
X151155714Y-108782857D01*
X151203333Y-108806666D01*
X151227142Y-108854285D01*
X151227142Y-109116190D01*
X151917619Y-108830476D02*
X151870000Y-108806666D01*
X151846190Y-108782857D01*
X151822380Y-108735238D01*
X151822380Y-108711428D01*
X151846190Y-108663809D01*
X151870000Y-108640000D01*
X151917619Y-108616190D01*
X152012857Y-108616190D01*
X152060476Y-108640000D01*
X152084285Y-108663809D01*
X152108095Y-108711428D01*
X152108095Y-108735238D01*
X152084285Y-108782857D01*
X152060476Y-108806666D01*
X152012857Y-108830476D01*
X151917619Y-108830476D01*
X151870000Y-108854285D01*
X151846190Y-108878095D01*
X151822380Y-108925714D01*
X151822380Y-109020952D01*
X151846190Y-109068571D01*
X151870000Y-109092380D01*
X151917619Y-109116190D01*
X152012857Y-109116190D01*
X152060476Y-109092380D01*
X152084285Y-109068571D01*
X152108095Y-109020952D01*
X152108095Y-108925714D01*
X152084285Y-108878095D01*
X152060476Y-108854285D01*
X152012857Y-108830476D01*
X152322380Y-109116190D02*
X152322380Y-108616190D01*
X152441428Y-108616190D01*
X152512857Y-108640000D01*
X152560476Y-108687619D01*
X152584285Y-108735238D01*
X152608095Y-108830476D01*
X152608095Y-108901904D01*
X152584285Y-108997142D01*
X152560476Y-109044761D01*
X152512857Y-109092380D01*
X152441428Y-109116190D01*
X152322380Y-109116190D01*
X152822380Y-109116190D02*
X152822380Y-108616190D01*
X153060476Y-109116190D02*
X153060476Y-108616190D01*
X153346190Y-109116190D01*
X153346190Y-108616190D01*
X153965238Y-109116190D02*
X153965238Y-108616190D01*
X154131904Y-108973333D01*
X154298571Y-108616190D01*
X154298571Y-109116190D01*
X154608095Y-109116190D02*
X154560476Y-109092380D01*
X154536666Y-109068571D01*
X154512857Y-109020952D01*
X154512857Y-108878095D01*
X154536666Y-108830476D01*
X154560476Y-108806666D01*
X154608095Y-108782857D01*
X154679523Y-108782857D01*
X154727142Y-108806666D01*
X154750952Y-108830476D01*
X154774761Y-108878095D01*
X154774761Y-109020952D01*
X154750952Y-109068571D01*
X154727142Y-109092380D01*
X154679523Y-109116190D01*
X154608095Y-109116190D01*
X155203333Y-109116190D02*
X155203333Y-108616190D01*
X155203333Y-109092380D02*
X155155714Y-109116190D01*
X155060476Y-109116190D01*
X155012857Y-109092380D01*
X154989047Y-109068571D01*
X154965238Y-109020952D01*
X154965238Y-108878095D01*
X154989047Y-108830476D01*
X155012857Y-108806666D01*
X155060476Y-108782857D01*
X155155714Y-108782857D01*
X155203333Y-108806666D01*
D12*
%TO.C,C1*%
X144608748Y-102380000D02*
X146031252Y-102380000D01*
X144608748Y-104200000D02*
X146031252Y-104200000D01*
%TO.C,R1*%
X143602258Y-108937500D02*
X143127742Y-108937500D01*
X143602258Y-109982500D02*
X143127742Y-109982500D01*
%TO.C,JP1*%
X148190000Y-104280000D02*
X146790000Y-104280000D01*
X146790000Y-102280000D02*
X148190000Y-102280000D01*
X146090000Y-103580000D02*
X146090000Y-102980000D01*
X148890000Y-102980000D02*
X148890000Y-103580000D01*
X146090000Y-103580000D02*
G75*
G03*
X146790000Y-104280000I699999J-1D01*
G01*
X148190000Y-104280000D02*
G75*
G03*
X148890000Y-103580000I1J699999D01*
G01*
X148890000Y-102980000D02*
G75*
G03*
X148190000Y-102280000I-699999J1D01*
G01*
X146790000Y-102280000D02*
G75*
G03*
X146090000Y-102980000I-1J-699999D01*
G01*
%TD*%
M02*
