%TF.GenerationSoftware,KiCad,Pcbnew,(6.0.1-0)*%
%TF.CreationDate,2022-07-02T14:58:06-04:00*%
%TF.ProjectId,Saturn 8pin mini DIN mod,53617475-726e-4203-9870-696e206d696e,rev?*%
%TF.SameCoordinates,Original*%
%TF.FileFunction,Copper,L1,Top*%
%TF.FilePolarity,Positive*%
%FSLAX46Y46*%
G04 Gerber Fmt 4.6, Leading zero omitted, Abs format (unit mm)*
G04 Created by KiCad (PCBNEW (6.0.1-0)) date 2022-07-02 14:58:06*
%MOMM*%
%LPD*%
G01*
G04 APERTURE LIST*
G04 Aperture macros list*
%AMRoundRect*
0 Rectangle with rounded corners*
0 $1 Rounding radius*
0 $2 $3 $4 $5 $6 $7 $8 $9 X,Y pos of 4 corners*
0 Add a 4 corners polygon primitive as box body*
4,1,4,$2,$3,$4,$5,$6,$7,$8,$9,$2,$3,0*
0 Add four circle primitives for the rounded corners*
1,1,$1+$1,$2,$3*
1,1,$1+$1,$4,$5*
1,1,$1+$1,$6,$7*
1,1,$1+$1,$8,$9*
0 Add four rect primitives between the rounded corners*
20,1,$1+$1,$2,$3,$4,$5,0*
20,1,$1+$1,$4,$5,$6,$7,0*
20,1,$1+$1,$6,$7,$8,$9,0*
20,1,$1+$1,$8,$9,$2,$3,0*%
%AMFreePoly0*
4,1,22,0.500000,-0.750000,0.000000,-0.750000,0.000000,-0.745033,-0.079941,-0.743568,-0.215256,-0.701293,-0.333266,-0.622738,-0.424486,-0.514219,-0.481581,-0.384460,-0.499164,-0.250000,-0.500000,-0.250000,-0.500000,0.250000,-0.499164,0.250000,-0.499963,0.256109,-0.478152,0.396186,-0.417904,0.524511,-0.324060,0.630769,-0.204165,0.706417,-0.067858,0.745374,0.000000,0.744959,0.000000,0.750000,
0.500000,0.750000,0.500000,-0.750000,0.500000,-0.750000,$1*%
%AMFreePoly1*
4,1,20,0.000000,0.744959,0.073905,0.744508,0.209726,0.703889,0.328688,0.626782,0.421226,0.519385,0.479903,0.390333,0.500000,0.250000,0.500000,-0.250000,0.499851,-0.262216,0.476331,-0.402017,0.414519,-0.529596,0.319384,-0.634700,0.198574,-0.708877,0.061801,-0.746166,0.000000,-0.745033,0.000000,-0.750000,-0.500000,-0.750000,-0.500000,0.750000,0.000000,0.750000,0.000000,0.744959,
0.000000,0.744959,$1*%
G04 Aperture macros list end*
%TA.AperFunction,SMDPad,CuDef*%
%ADD10RoundRect,0.250000X-0.250000X-0.500000X0.250000X-0.500000X0.250000X0.500000X-0.250000X0.500000X0*%
%TD*%
%TA.AperFunction,SMDPad,CuDef*%
%ADD11RoundRect,0.375000X-0.375000X-0.625000X0.375000X-0.625000X0.375000X0.625000X-0.375000X0.625000X0*%
%TD*%
%TA.AperFunction,ComponentPad*%
%ADD12C,1.524000*%
%TD*%
%TA.AperFunction,ComponentPad*%
%ADD13RoundRect,0.300000X-0.300000X-0.800000X0.300000X-0.800000X0.300000X0.800000X-0.300000X0.800000X0*%
%TD*%
%TA.AperFunction,SMDPad,CuDef*%
%ADD14RoundRect,0.250000X-0.325000X-0.650000X0.325000X-0.650000X0.325000X0.650000X-0.325000X0.650000X0*%
%TD*%
%TA.AperFunction,SMDPad,CuDef*%
%ADD15RoundRect,0.200000X0.200000X0.275000X-0.200000X0.275000X-0.200000X-0.275000X0.200000X-0.275000X0*%
%TD*%
%TA.AperFunction,SMDPad,CuDef*%
%ADD16FreePoly0,180.000000*%
%TD*%
%TA.AperFunction,SMDPad,CuDef*%
%ADD17FreePoly1,180.000000*%
%TD*%
%TA.AperFunction,ViaPad*%
%ADD18C,0.800000*%
%TD*%
%TA.AperFunction,Conductor*%
%ADD19C,0.250000*%
%TD*%
G04 APERTURE END LIST*
D10*
%TO.P,P1,5,R*%
%TO.N,/R*%
X146180000Y-112250000D03*
%TO.P,P1,6,G*%
%TO.N,/G*%
X148130000Y-112250000D03*
%TO.P,P1,8,CVBS*%
%TO.N,unconnected-(P1-Pad8)*%
X144230000Y-112250000D03*
%TO.P,P1,9,Luma*%
%TO.N,/Luma*%
X150080000Y-112250000D03*
%TO.P,P1,10,Chroma*%
%TO.N,unconnected-(P1-Pad10)*%
X152030000Y-112250000D03*
D11*
%TO.P,P1,11,GND_Shield*%
%TO.N,GND*%
X154530000Y-112010000D03*
X141620000Y-112000000D03*
%TD*%
D12*
%TO.P,P2,1,Audio_R*%
%TO.N,/Audio R*%
X147390000Y-110150000D03*
%TO.P,P2,2,Audio_L*%
%TO.N,/Audio L*%
X149390000Y-110150000D03*
%TO.P,P2,3,Sync*%
%TO.N,/Sync_Decoupled*%
X145410000Y-107480000D03*
%TO.P,P2,4,GND_Shield*%
%TO.N,GND*%
X148390000Y-107480000D03*
D13*
X153620000Y-107350000D03*
X143150000Y-107350000D03*
D12*
%TO.P,P2,5,+5V*%
%TO.N,/+5V*%
X151360000Y-107480000D03*
%TO.P,P2,6,B*%
%TO.N,/B*%
X145800000Y-105580000D03*
%TO.P,P2,7,G*%
%TO.N,/G*%
X148390000Y-105140000D03*
%TO.P,P2,8,R*%
%TO.N,/R*%
X150970000Y-105580000D03*
%TD*%
D14*
%TO.P,C1,1*%
%TO.N,Net-(C1-Pad1)*%
X143845000Y-103290000D03*
%TO.P,C1,2*%
%TO.N,/Sync_Decoupled*%
X146795000Y-103290000D03*
%TD*%
D15*
%TO.P,R1,1*%
%TO.N,/CSync*%
X144190000Y-109460000D03*
%TO.P,R1,2*%
%TO.N,Net-(C1-Pad1)*%
X142540000Y-109460000D03*
%TD*%
D16*
%TO.P,JP1,1,A*%
%TO.N,/Luma*%
X148140000Y-103280000D03*
D17*
%TO.P,JP1,2,B*%
%TO.N,/Sync_Decoupled*%
X146840000Y-103280000D03*
%TD*%
D18*
%TO.N,GND*%
X145860000Y-110230000D03*
%TO.N,/CSync*%
X143680000Y-110600000D03*
%TO.N,GND*%
X154550000Y-103520000D03*
X141610000Y-111990000D03*
X152350000Y-109860000D03*
X154540000Y-111980000D03*
X145320000Y-103280000D03*
%TD*%
D19*
%TO.N,/Luma*%
X150080000Y-112250000D02*
X151510000Y-110820000D01*
X151510000Y-110820000D02*
X152890000Y-110820000D01*
X152890000Y-110820000D02*
X155027338Y-108682662D01*
X155027338Y-105717338D02*
X152350000Y-103040000D01*
X155027338Y-108682662D02*
X155027338Y-105717338D01*
X152350000Y-103040000D02*
X148150000Y-103040000D01*
%TO.N,/CSync*%
X143680000Y-110600000D02*
X144190000Y-110090000D01*
X144190000Y-110090000D02*
X144190000Y-109460000D01*
%TO.N,/Sync_Decoupled*%
X146790000Y-103290000D02*
X146790000Y-104370000D01*
X145850000Y-107480000D02*
X145410000Y-107480000D01*
X146790000Y-104370000D02*
X147100000Y-104680000D01*
X147100000Y-104680000D02*
X147100000Y-106230000D01*
X147100000Y-106230000D02*
X145850000Y-107480000D01*
%TO.N,/G*%
X150083489Y-111196511D02*
X151000000Y-110280000D01*
X149183489Y-111196511D02*
X150083489Y-111196511D01*
X151000000Y-110280000D02*
X151000000Y-109781954D01*
X148130000Y-112250000D02*
X149183489Y-111196511D01*
X151000000Y-109781954D02*
X152560000Y-108221954D01*
X152560000Y-108221954D02*
X152560000Y-104890000D01*
X152560000Y-104890000D02*
X151570000Y-103900000D01*
X151570000Y-103900000D02*
X149630000Y-103900000D01*
X149630000Y-103900000D02*
X148390000Y-105140000D01*
%TO.N,/R*%
X145130000Y-111200000D02*
X145130000Y-109610000D01*
X149900000Y-108050000D02*
X149900000Y-106650000D01*
X145130000Y-109610000D02*
X145950000Y-108790000D01*
X145950000Y-108790000D02*
X149160000Y-108790000D01*
X149160000Y-108790000D02*
X149900000Y-108050000D01*
X146180000Y-112250000D02*
X145130000Y-111200000D01*
X149900000Y-106650000D02*
X150970000Y-105580000D01*
%TO.N,Net-(C1-Pad1)*%
X142559786Y-109460000D02*
X142966636Y-109460000D01*
X144220000Y-103670000D02*
X143840000Y-103290000D01*
X142966636Y-109460000D02*
X144220000Y-108206636D01*
X144220000Y-108206636D02*
X144220000Y-103670000D01*
%TD*%
%TA.AperFunction,Conductor*%
%TO.N,GND*%
G36*
X150600257Y-106425181D02*
G01*
X150683362Y-106462182D01*
X150687408Y-106463042D01*
X150687411Y-106463043D01*
X150868998Y-106501641D01*
X150869002Y-106501641D01*
X150873041Y-106502500D01*
X150915784Y-106502500D01*
X150966564Y-106520982D01*
X150993584Y-106567782D01*
X150984200Y-106621000D01*
X150947916Y-106653670D01*
X150899998Y-106675004D01*
X150899994Y-106675006D01*
X150896210Y-106676691D01*
X150892856Y-106679128D01*
X150892854Y-106679129D01*
X150876508Y-106691005D01*
X150739327Y-106790673D01*
X150736558Y-106793748D01*
X150736555Y-106793751D01*
X150676666Y-106860265D01*
X150609571Y-106934782D01*
X150512613Y-107102719D01*
X150452689Y-107287145D01*
X150452256Y-107291261D01*
X150452256Y-107291263D01*
X150432852Y-107475880D01*
X150432419Y-107480000D01*
X150432852Y-107484120D01*
X150452035Y-107666628D01*
X150452689Y-107672855D01*
X150512613Y-107857281D01*
X150609571Y-108025218D01*
X150617374Y-108033884D01*
X150736555Y-108166249D01*
X150736558Y-108166252D01*
X150739327Y-108169327D01*
X150896209Y-108283309D01*
X150899993Y-108284994D01*
X150899997Y-108284996D01*
X151069579Y-108360498D01*
X151069581Y-108360499D01*
X151073362Y-108362182D01*
X151077408Y-108363042D01*
X151077411Y-108363043D01*
X151258998Y-108401641D01*
X151259002Y-108401641D01*
X151263041Y-108402500D01*
X151456959Y-108402500D01*
X151460998Y-108401641D01*
X151461002Y-108401641D01*
X151642589Y-108363043D01*
X151642592Y-108363042D01*
X151646638Y-108362182D01*
X151650419Y-108360499D01*
X151650421Y-108360498D01*
X151820003Y-108284996D01*
X151820007Y-108284994D01*
X151823791Y-108283309D01*
X151980673Y-108169327D01*
X151983442Y-108166252D01*
X151983445Y-108166249D01*
X152102626Y-108033884D01*
X152110429Y-108025218D01*
X152127083Y-107996371D01*
X152168481Y-107961635D01*
X152222520Y-107961635D01*
X152263916Y-107996371D01*
X152274500Y-108035871D01*
X152274500Y-108070974D01*
X152256018Y-108121754D01*
X152251361Y-108126835D01*
X150834524Y-109543672D01*
X150830929Y-109546776D01*
X150826829Y-109548780D01*
X150821869Y-109554127D01*
X150794669Y-109583449D01*
X150792612Y-109585584D01*
X150779346Y-109598850D01*
X150777284Y-109601856D01*
X150775990Y-109603413D01*
X150773149Y-109606648D01*
X150754498Y-109626754D01*
X150751795Y-109633530D01*
X150749825Y-109638467D01*
X150741596Y-109653879D01*
X150734459Y-109664282D01*
X150728390Y-109689857D01*
X150728361Y-109689981D01*
X150724872Y-109701012D01*
X150715086Y-109725540D01*
X150714500Y-109731517D01*
X150714500Y-109739147D01*
X150712365Y-109757386D01*
X150709902Y-109767766D01*
X150710886Y-109774996D01*
X150710886Y-109774997D01*
X150713778Y-109796245D01*
X150714500Y-109806899D01*
X150714500Y-110129020D01*
X150696018Y-110179800D01*
X150691361Y-110184881D01*
X150416364Y-110459878D01*
X150367388Y-110482716D01*
X150315190Y-110468730D01*
X150284195Y-110424464D01*
X150285370Y-110379604D01*
X150287849Y-110371977D01*
X150297311Y-110342855D01*
X150303024Y-110288505D01*
X150317148Y-110154120D01*
X150317581Y-110150000D01*
X150311853Y-110095500D01*
X150297744Y-109961263D01*
X150297744Y-109961261D01*
X150297311Y-109957145D01*
X150237387Y-109772719D01*
X150140429Y-109604782D01*
X150094332Y-109553586D01*
X150013445Y-109463751D01*
X150013442Y-109463748D01*
X150010673Y-109460673D01*
X149853791Y-109346691D01*
X149850007Y-109345006D01*
X149850003Y-109345004D01*
X149680421Y-109269502D01*
X149680419Y-109269501D01*
X149676638Y-109267818D01*
X149672592Y-109266958D01*
X149672589Y-109266957D01*
X149491002Y-109228359D01*
X149490998Y-109228359D01*
X149486959Y-109227500D01*
X149293041Y-109227500D01*
X149289002Y-109228359D01*
X149288998Y-109228359D01*
X149107411Y-109266957D01*
X149107408Y-109266958D01*
X149103362Y-109267818D01*
X149099581Y-109269501D01*
X149099579Y-109269502D01*
X148929998Y-109345004D01*
X148929994Y-109345006D01*
X148926210Y-109346691D01*
X148922856Y-109349128D01*
X148922854Y-109349129D01*
X148881358Y-109379278D01*
X148769327Y-109460673D01*
X148766558Y-109463748D01*
X148766555Y-109463751D01*
X148685668Y-109553586D01*
X148639571Y-109604782D01*
X148542613Y-109772719D01*
X148482689Y-109957145D01*
X148482256Y-109961261D01*
X148482256Y-109961263D01*
X148468567Y-110091506D01*
X148444878Y-110140076D01*
X148424133Y-110149312D01*
X148436435Y-110152840D01*
X148466653Y-110197640D01*
X148468567Y-110208494D01*
X148476977Y-110288505D01*
X148482689Y-110342855D01*
X148542613Y-110527281D01*
X148639571Y-110695218D01*
X148642340Y-110698293D01*
X148766555Y-110836249D01*
X148766558Y-110836252D01*
X148769327Y-110839327D01*
X148907401Y-110939644D01*
X148937618Y-110984443D01*
X148931970Y-111038186D01*
X148916826Y-111059416D01*
X148623933Y-111352309D01*
X148574957Y-111375147D01*
X148532208Y-111366838D01*
X148513974Y-111357548D01*
X148513973Y-111357548D01*
X148508433Y-111354725D01*
X148502294Y-111353753D01*
X148502292Y-111353752D01*
X148460975Y-111347208D01*
X148412307Y-111339500D01*
X148130137Y-111339500D01*
X147847694Y-111339501D01*
X147844632Y-111339986D01*
X147844631Y-111339986D01*
X147757703Y-111353753D01*
X147757702Y-111353753D01*
X147751567Y-111354725D01*
X147635706Y-111413759D01*
X147543759Y-111505706D01*
X147484725Y-111621567D01*
X147469500Y-111717693D01*
X147469501Y-112782306D01*
X147469986Y-112785368D01*
X147469986Y-112785369D01*
X147483456Y-112870418D01*
X147484725Y-112878433D01*
X147487546Y-112883969D01*
X147498330Y-112905135D01*
X147504915Y-112958772D01*
X147475483Y-113004093D01*
X147427940Y-113020000D01*
X146882060Y-113020000D01*
X146831280Y-113001518D01*
X146804260Y-112954718D01*
X146811670Y-112905135D01*
X146822453Y-112883971D01*
X146822454Y-112883969D01*
X146825275Y-112878433D01*
X146826545Y-112870418D01*
X146840014Y-112785373D01*
X146840500Y-112782307D01*
X146840499Y-111717694D01*
X146825275Y-111621567D01*
X146766241Y-111505706D01*
X146674294Y-111413759D01*
X146558433Y-111354725D01*
X146552294Y-111353753D01*
X146552292Y-111353752D01*
X146510975Y-111347208D01*
X146462307Y-111339500D01*
X146180137Y-111339500D01*
X145897694Y-111339501D01*
X145894632Y-111339986D01*
X145894631Y-111339986D01*
X145807703Y-111353753D01*
X145807702Y-111353753D01*
X145801567Y-111354725D01*
X145796029Y-111357547D01*
X145796028Y-111357547D01*
X145777792Y-111366838D01*
X145724156Y-111373423D01*
X145686067Y-111352309D01*
X145438639Y-111104881D01*
X145415801Y-111055905D01*
X145415500Y-111049020D01*
X145415500Y-109760980D01*
X145433982Y-109710200D01*
X145438639Y-109705119D01*
X146045119Y-109098639D01*
X146094095Y-109075801D01*
X146100980Y-109075500D01*
X147256509Y-109075500D01*
X147307289Y-109093982D01*
X147334309Y-109140782D01*
X147324925Y-109194000D01*
X147283529Y-109228736D01*
X147272934Y-109231774D01*
X147107411Y-109266957D01*
X147107408Y-109266958D01*
X147103362Y-109267818D01*
X147099581Y-109269501D01*
X147099579Y-109269502D01*
X146929998Y-109345004D01*
X146929994Y-109345006D01*
X146926210Y-109346691D01*
X146922856Y-109349128D01*
X146922854Y-109349129D01*
X146881358Y-109379278D01*
X146769327Y-109460673D01*
X146766558Y-109463748D01*
X146766555Y-109463751D01*
X146685668Y-109553586D01*
X146639571Y-109604782D01*
X146542613Y-109772719D01*
X146482689Y-109957145D01*
X146482256Y-109961261D01*
X146482256Y-109961263D01*
X146468147Y-110095500D01*
X146462419Y-110150000D01*
X146462852Y-110154120D01*
X146476977Y-110288505D01*
X146482689Y-110342855D01*
X146542613Y-110527281D01*
X146639571Y-110695218D01*
X146642340Y-110698293D01*
X146766555Y-110836249D01*
X146766558Y-110836252D01*
X146769327Y-110839327D01*
X146926209Y-110953309D01*
X146929993Y-110954994D01*
X146929997Y-110954996D01*
X147099579Y-111030498D01*
X147099581Y-111030499D01*
X147103362Y-111032182D01*
X147107408Y-111033042D01*
X147107411Y-111033043D01*
X147288998Y-111071641D01*
X147289002Y-111071641D01*
X147293041Y-111072500D01*
X147486959Y-111072500D01*
X147490998Y-111071641D01*
X147491002Y-111071641D01*
X147672589Y-111033043D01*
X147672592Y-111033042D01*
X147676638Y-111032182D01*
X147680419Y-111030499D01*
X147680421Y-111030498D01*
X147850003Y-110954996D01*
X147850007Y-110954994D01*
X147853791Y-110953309D01*
X148010673Y-110839327D01*
X148013442Y-110836252D01*
X148013445Y-110836249D01*
X148137660Y-110698293D01*
X148140429Y-110695218D01*
X148237387Y-110527281D01*
X148297311Y-110342855D01*
X148303024Y-110288505D01*
X148311433Y-110208494D01*
X148335122Y-110159924D01*
X148355867Y-110150688D01*
X148343565Y-110147160D01*
X148313347Y-110102360D01*
X148311433Y-110091506D01*
X148297744Y-109961263D01*
X148297744Y-109961261D01*
X148297311Y-109957145D01*
X148237387Y-109772719D01*
X148140429Y-109604782D01*
X148094332Y-109553586D01*
X148013445Y-109463751D01*
X148013442Y-109463748D01*
X148010673Y-109460673D01*
X147853791Y-109346691D01*
X147850007Y-109345006D01*
X147850003Y-109345004D01*
X147680421Y-109269502D01*
X147680419Y-109269501D01*
X147676638Y-109267818D01*
X147672592Y-109266958D01*
X147672589Y-109266957D01*
X147507066Y-109231774D01*
X147461238Y-109203137D01*
X147444539Y-109151743D01*
X147464783Y-109101639D01*
X147512496Y-109076269D01*
X147523491Y-109075500D01*
X149108526Y-109075500D01*
X149113255Y-109075847D01*
X149117571Y-109077329D01*
X149164799Y-109075556D01*
X149167762Y-109075500D01*
X149186552Y-109075500D01*
X149190129Y-109074834D01*
X149192172Y-109074645D01*
X149196469Y-109074367D01*
X149216563Y-109073613D01*
X149216565Y-109073613D01*
X149223853Y-109073339D01*
X149235442Y-109068360D01*
X149252155Y-109063283D01*
X149257384Y-109062309D01*
X149257388Y-109062308D01*
X149264559Y-109060972D01*
X149287045Y-109047112D01*
X149297310Y-109041780D01*
X149299094Y-109041014D01*
X149321574Y-109031355D01*
X149326215Y-109027543D01*
X149331606Y-109022152D01*
X149346014Y-109010763D01*
X149348886Y-109008993D01*
X149348889Y-109008990D01*
X149355098Y-109005163D01*
X149372500Y-108982278D01*
X149379523Y-108974235D01*
X150065476Y-108288282D01*
X150069071Y-108285178D01*
X150073171Y-108283174D01*
X150105331Y-108248505D01*
X150107388Y-108246370D01*
X150120654Y-108233104D01*
X150122716Y-108230098D01*
X150124010Y-108228541D01*
X150126852Y-108225305D01*
X150140540Y-108210549D01*
X150145502Y-108205200D01*
X150150177Y-108193483D01*
X150158405Y-108178074D01*
X150161412Y-108173690D01*
X150161413Y-108173689D01*
X150165540Y-108167672D01*
X150171638Y-108141977D01*
X150175127Y-108130946D01*
X150182846Y-108111598D01*
X150182846Y-108111597D01*
X150184914Y-108106414D01*
X150185500Y-108100437D01*
X150185500Y-108092808D01*
X150187635Y-108074567D01*
X150188413Y-108071288D01*
X150190098Y-108064188D01*
X150186222Y-108035709D01*
X150185500Y-108025055D01*
X150185500Y-106800980D01*
X150203982Y-106750200D01*
X150208639Y-106745119D01*
X150512267Y-106441491D01*
X150561243Y-106418653D01*
X150600257Y-106425181D01*
G37*
%TD.AperFunction*%
%TA.AperFunction,Conductor*%
G36*
X143139101Y-102348482D02*
G01*
X143166121Y-102395282D01*
X143158711Y-102444865D01*
X143124725Y-102511567D01*
X143123753Y-102517706D01*
X143123752Y-102517708D01*
X143119230Y-102546259D01*
X143109500Y-102607693D01*
X143109501Y-103972306D01*
X143109986Y-103975368D01*
X143109986Y-103975369D01*
X143122532Y-104054584D01*
X143124725Y-104068433D01*
X143127546Y-104073969D01*
X143164102Y-104145714D01*
X143183759Y-104184294D01*
X143275706Y-104276241D01*
X143391567Y-104335275D01*
X143397706Y-104336247D01*
X143397708Y-104336248D01*
X143428748Y-104341164D01*
X143487693Y-104350500D01*
X143504574Y-104350500D01*
X143855500Y-104350499D01*
X143906280Y-104368981D01*
X143933300Y-104415781D01*
X143934500Y-104429499D01*
X143934500Y-106068072D01*
X143916018Y-106118852D01*
X143869218Y-106145872D01*
X143816000Y-106136488D01*
X143807736Y-106130998D01*
X143726823Y-106069581D01*
X143717530Y-106064345D01*
X143587148Y-106012723D01*
X143577389Y-106010244D01*
X143495094Y-106000286D01*
X143490352Y-106000000D01*
X143288930Y-106000000D01*
X143278259Y-106003884D01*
X143275000Y-106009528D01*
X143275000Y-108700000D01*
X143274280Y-108700000D01*
X143274279Y-108738134D01*
X143255905Y-108766973D01*
X143099724Y-108923154D01*
X143050748Y-108945992D01*
X142998550Y-108932006D01*
X142988050Y-108923203D01*
X142980671Y-108915836D01*
X142952238Y-108887453D01*
X142946375Y-108884587D01*
X142946374Y-108884586D01*
X142875566Y-108849974D01*
X142838062Y-108811069D01*
X142834340Y-108757158D01*
X142866141Y-108713467D01*
X142910260Y-108700000D01*
X143011070Y-108700000D01*
X143021741Y-108696116D01*
X143025000Y-108690472D01*
X143025000Y-107488930D01*
X143021116Y-107478259D01*
X143015472Y-107475000D01*
X142313930Y-107475000D01*
X142303259Y-107478884D01*
X142300000Y-107484528D01*
X142300000Y-108190352D01*
X142300286Y-108195094D01*
X142310244Y-108277389D01*
X142312723Y-108287148D01*
X142364345Y-108417530D01*
X142369581Y-108426823D01*
X142454184Y-108538282D01*
X142461718Y-108545816D01*
X142573177Y-108630419D01*
X142582470Y-108635655D01*
X142674388Y-108672048D01*
X142714798Y-108707926D01*
X142722692Y-108761385D01*
X142694377Y-108807412D01*
X142645306Y-108824500D01*
X142305828Y-108824500D01*
X142234974Y-108834930D01*
X142127243Y-108887824D01*
X142042453Y-108972762D01*
X141989747Y-109080585D01*
X141988862Y-109086653D01*
X141979916Y-109147978D01*
X141979500Y-109150828D01*
X141979500Y-109769172D01*
X141989930Y-109840026D01*
X142042824Y-109947757D01*
X142047445Y-109952370D01*
X142052228Y-109957145D01*
X142127762Y-110032547D01*
X142235585Y-110085253D01*
X142251674Y-110087600D01*
X142303001Y-110095088D01*
X142303006Y-110095088D01*
X142305828Y-110095500D01*
X142774172Y-110095500D01*
X142845026Y-110085070D01*
X142952757Y-110032176D01*
X143037547Y-109947238D01*
X143090253Y-109839415D01*
X143099408Y-109776660D01*
X143100088Y-109771999D01*
X143100088Y-109771994D01*
X143100500Y-109769172D01*
X143100500Y-109761459D01*
X143118982Y-109710679D01*
X143129352Y-109700417D01*
X143132851Y-109697543D01*
X143138242Y-109692152D01*
X143152650Y-109680763D01*
X143155522Y-109678993D01*
X143155525Y-109678990D01*
X143161734Y-109675163D01*
X143179136Y-109652278D01*
X143186159Y-109644235D01*
X143494639Y-109335755D01*
X143543615Y-109312917D01*
X143595813Y-109326903D01*
X143626808Y-109371169D01*
X143629500Y-109391616D01*
X143629500Y-109769172D01*
X143639930Y-109840026D01*
X143660614Y-109882154D01*
X143683626Y-109929023D01*
X143689415Y-109982751D01*
X143659314Y-110027630D01*
X143623023Y-110042164D01*
X143533680Y-110053926D01*
X143452385Y-110087600D01*
X143402121Y-110108420D01*
X143402119Y-110108421D01*
X143397332Y-110110404D01*
X143393223Y-110113557D01*
X143393221Y-110113558D01*
X143340359Y-110154120D01*
X143280246Y-110200246D01*
X143277097Y-110204350D01*
X143200199Y-110304567D01*
X143190404Y-110317332D01*
X143188421Y-110322119D01*
X143188420Y-110322121D01*
X143178200Y-110346794D01*
X143133926Y-110453680D01*
X143114663Y-110600000D01*
X143133926Y-110746320D01*
X143190404Y-110882668D01*
X143193557Y-110886777D01*
X143193558Y-110886779D01*
X143242152Y-110950108D01*
X143280246Y-110999754D01*
X143284350Y-111002903D01*
X143393220Y-111086442D01*
X143393222Y-111086443D01*
X143397331Y-111089596D01*
X143402118Y-111091579D01*
X143402120Y-111091580D01*
X143436453Y-111105801D01*
X143533680Y-111146074D01*
X143680000Y-111165337D01*
X143826320Y-111146074D01*
X143923547Y-111105801D01*
X143957880Y-111091580D01*
X143957882Y-111091579D01*
X143962669Y-111089596D01*
X143966778Y-111086443D01*
X143966780Y-111086442D01*
X144075650Y-111002903D01*
X144079754Y-110999754D01*
X144117848Y-110950108D01*
X144166442Y-110886779D01*
X144166443Y-110886777D01*
X144169596Y-110882668D01*
X144226074Y-110746320D01*
X144245337Y-110600000D01*
X144243209Y-110583834D01*
X144231625Y-110495842D01*
X144243321Y-110443084D01*
X144254088Y-110429670D01*
X144355476Y-110328282D01*
X144359071Y-110325178D01*
X144363171Y-110323174D01*
X144395331Y-110288505D01*
X144397388Y-110286370D01*
X144410654Y-110273104D01*
X144412716Y-110270098D01*
X144414010Y-110268541D01*
X144416852Y-110265305D01*
X144430540Y-110250549D01*
X144435502Y-110245200D01*
X144440175Y-110233487D01*
X144448404Y-110218075D01*
X144455541Y-110207672D01*
X144461639Y-110181973D01*
X144465129Y-110170938D01*
X144468798Y-110161742D01*
X144474914Y-110146414D01*
X144475500Y-110140437D01*
X144475500Y-110139912D01*
X144475951Y-110138840D01*
X144476777Y-110135444D01*
X144477323Y-110135577D01*
X144496369Y-110090281D01*
X144519510Y-110073050D01*
X144596893Y-110035056D01*
X144596897Y-110035053D01*
X144602757Y-110032176D01*
X144687547Y-109947238D01*
X144690412Y-109941377D01*
X144690414Y-109941374D01*
X144694526Y-109932961D01*
X144733432Y-109895457D01*
X144787343Y-109891735D01*
X144831033Y-109923537D01*
X144844500Y-109967655D01*
X144844500Y-111148526D01*
X144844153Y-111153255D01*
X144842671Y-111157571D01*
X144842945Y-111164862D01*
X144844444Y-111204798D01*
X144844500Y-111207762D01*
X144844500Y-111226552D01*
X144845166Y-111230129D01*
X144845355Y-111232172D01*
X144845633Y-111236469D01*
X144846661Y-111263853D01*
X144851640Y-111275442D01*
X144856717Y-111292155D01*
X144857691Y-111297384D01*
X144857692Y-111297388D01*
X144859028Y-111304559D01*
X144868748Y-111320328D01*
X144872888Y-111327045D01*
X144878220Y-111337310D01*
X144886916Y-111357548D01*
X144888645Y-111361573D01*
X144886776Y-111362376D01*
X144893510Y-111396010D01*
X144936968Y-111411927D01*
X144937701Y-111412484D01*
X144945765Y-111419523D01*
X145496361Y-111970119D01*
X145519199Y-112019095D01*
X145519500Y-112025980D01*
X145519501Y-112782306D01*
X145519986Y-112785368D01*
X145519986Y-112785369D01*
X145533456Y-112870418D01*
X145534725Y-112878433D01*
X145537546Y-112883969D01*
X145548330Y-112905135D01*
X145554915Y-112958772D01*
X145525483Y-113004093D01*
X145477940Y-113020000D01*
X144932060Y-113020000D01*
X144881280Y-113001518D01*
X144854260Y-112954718D01*
X144861670Y-112905135D01*
X144872453Y-112883971D01*
X144872454Y-112883969D01*
X144875275Y-112878433D01*
X144876545Y-112870418D01*
X144890014Y-112785373D01*
X144890500Y-112782307D01*
X144890499Y-111717694D01*
X144875275Y-111621567D01*
X144872455Y-111616033D01*
X144872453Y-111616026D01*
X144818782Y-111510692D01*
X144814102Y-111472579D01*
X144768314Y-111457100D01*
X144761823Y-111451288D01*
X144724294Y-111413759D01*
X144608433Y-111354725D01*
X144602294Y-111353753D01*
X144602292Y-111353752D01*
X144560975Y-111347208D01*
X144512307Y-111339500D01*
X144230137Y-111339500D01*
X143947694Y-111339501D01*
X143944632Y-111339986D01*
X143944631Y-111339986D01*
X143857703Y-111353753D01*
X143857702Y-111353753D01*
X143851567Y-111354725D01*
X143735706Y-111413759D01*
X143643759Y-111505706D01*
X143584725Y-111621567D01*
X143569500Y-111717693D01*
X143569501Y-112782306D01*
X143569986Y-112785368D01*
X143569986Y-112785369D01*
X143583456Y-112870418D01*
X143584725Y-112878433D01*
X143587546Y-112883969D01*
X143598330Y-112905135D01*
X143604915Y-112958772D01*
X143575483Y-113004093D01*
X143527940Y-113020000D01*
X142626017Y-113020000D01*
X142575237Y-113001518D01*
X142548217Y-112954718D01*
X142558018Y-112900787D01*
X142570625Y-112879469D01*
X142574541Y-112870418D01*
X142616083Y-112727430D01*
X142617528Y-112719518D01*
X142619877Y-112689672D01*
X142620000Y-112686554D01*
X142620000Y-112138930D01*
X142616116Y-112128259D01*
X142610472Y-112125000D01*
X141574000Y-112125000D01*
X141523220Y-112106518D01*
X141496200Y-112059718D01*
X141495000Y-112046000D01*
X141495000Y-111861070D01*
X141745000Y-111861070D01*
X141748884Y-111871741D01*
X141754528Y-111875000D01*
X142606070Y-111875000D01*
X142616741Y-111871116D01*
X142620000Y-111865472D01*
X142620000Y-111313447D01*
X142619877Y-111310328D01*
X142617528Y-111280482D01*
X142616083Y-111272570D01*
X142574541Y-111129582D01*
X142570627Y-111120535D01*
X142495301Y-110993165D01*
X142489257Y-110985374D01*
X142384626Y-110880743D01*
X142376835Y-110874699D01*
X142249465Y-110799373D01*
X142240418Y-110795459D01*
X142097430Y-110753917D01*
X142089518Y-110752472D01*
X142059672Y-110750123D01*
X142056553Y-110750000D01*
X141758930Y-110750000D01*
X141748259Y-110753884D01*
X141745000Y-110759528D01*
X141745000Y-111861070D01*
X141495000Y-111861070D01*
X141495000Y-110763930D01*
X141491116Y-110753259D01*
X141485472Y-110750000D01*
X141183447Y-110750000D01*
X141180328Y-110750123D01*
X141150482Y-110752472D01*
X141142570Y-110753917D01*
X140999582Y-110795459D01*
X140990535Y-110799373D01*
X140863165Y-110874699D01*
X140855374Y-110880743D01*
X140794861Y-110941256D01*
X140745885Y-110964094D01*
X140693687Y-110950108D01*
X140662692Y-110905842D01*
X140660000Y-110885395D01*
X140660000Y-106989000D01*
X140678482Y-106938220D01*
X140725282Y-106911200D01*
X140739000Y-106910000D01*
X142124954Y-106910000D01*
X142131298Y-106910399D01*
X142139347Y-106913489D01*
X142164973Y-106910524D01*
X142174051Y-106910000D01*
X142179494Y-106910000D01*
X142184123Y-106908863D01*
X142184736Y-106908789D01*
X142193331Y-106907243D01*
X142211918Y-106905092D01*
X142264487Y-106917614D01*
X142296707Y-106960997D01*
X142300000Y-106983568D01*
X142300000Y-107211070D01*
X142303884Y-107221741D01*
X142309528Y-107225000D01*
X143011070Y-107225000D01*
X143021741Y-107221116D01*
X143025000Y-107215472D01*
X143025000Y-106013930D01*
X143021116Y-106003259D01*
X143015472Y-106000000D01*
X142809648Y-106000000D01*
X142804906Y-106000286D01*
X142722611Y-106010244D01*
X142712852Y-106012723D01*
X142582470Y-106064345D01*
X142573177Y-106069581D01*
X142461718Y-106154184D01*
X142454861Y-106161041D01*
X142405885Y-106183879D01*
X142353687Y-106169893D01*
X142322692Y-106125627D01*
X142320000Y-106105180D01*
X142320000Y-103915046D01*
X142320399Y-103908702D01*
X142323489Y-103900653D01*
X142320524Y-103875027D01*
X142320000Y-103865949D01*
X142320000Y-103860506D01*
X142318863Y-103855877D01*
X142318789Y-103855264D01*
X142317243Y-103846669D01*
X142315552Y-103832056D01*
X142315552Y-103832055D01*
X142314453Y-103822560D01*
X142309263Y-103814923D01*
X142308890Y-103813711D01*
X142308239Y-103812623D01*
X142306036Y-103803654D01*
X142289980Y-103785443D01*
X142283908Y-103777615D01*
X142270265Y-103757539D01*
X142262127Y-103753176D01*
X142261234Y-103752273D01*
X142260154Y-103751611D01*
X142254047Y-103744684D01*
X142231374Y-103735980D01*
X142222372Y-103731858D01*
X142207381Y-103723820D01*
X142207379Y-103723819D01*
X142200981Y-103720389D01*
X142197902Y-103720000D01*
X142195046Y-103720000D01*
X142188702Y-103719601D01*
X142180653Y-103716511D01*
X142155027Y-103719476D01*
X142145949Y-103720000D01*
X140739000Y-103720000D01*
X140688220Y-103701518D01*
X140661200Y-103654718D01*
X140660000Y-103641000D01*
X140660000Y-102409000D01*
X140678482Y-102358220D01*
X140725282Y-102331200D01*
X140739000Y-102330000D01*
X143088321Y-102330000D01*
X143139101Y-102348482D01*
G37*
%TD.AperFunction*%
%TA.AperFunction,Conductor*%
G36*
X155303850Y-108900419D02*
G01*
X155336486Y-108943489D01*
X155340000Y-108966788D01*
X155340000Y-110777639D01*
X155321518Y-110828419D01*
X155274718Y-110855439D01*
X155220786Y-110845638D01*
X155159465Y-110809373D01*
X155150418Y-110805459D01*
X155007430Y-110763917D01*
X154999518Y-110762472D01*
X154969672Y-110760123D01*
X154966553Y-110760000D01*
X154668930Y-110760000D01*
X154658259Y-110763884D01*
X154655000Y-110769528D01*
X154655000Y-112056000D01*
X154636518Y-112106780D01*
X154589718Y-112133800D01*
X154576000Y-112135000D01*
X153543930Y-112135000D01*
X153533259Y-112138884D01*
X153530000Y-112144528D01*
X153530000Y-112696554D01*
X153530123Y-112699672D01*
X153532472Y-112729518D01*
X153533917Y-112737430D01*
X153575459Y-112880418D01*
X153579375Y-112889470D01*
X153586068Y-112900787D01*
X153596008Y-112953904D01*
X153569479Y-113000984D01*
X153518069Y-113020000D01*
X152732060Y-113020000D01*
X152681280Y-113001518D01*
X152654260Y-112954718D01*
X152661670Y-112905135D01*
X152672453Y-112883971D01*
X152672454Y-112883969D01*
X152675275Y-112878433D01*
X152676545Y-112870418D01*
X152690014Y-112785373D01*
X152690500Y-112782307D01*
X152690499Y-111871070D01*
X153530000Y-111871070D01*
X153533884Y-111881741D01*
X153539528Y-111885000D01*
X154391070Y-111885000D01*
X154401741Y-111881116D01*
X154405000Y-111875472D01*
X154405000Y-110773930D01*
X154401116Y-110763259D01*
X154395472Y-110760000D01*
X154093447Y-110760000D01*
X154090328Y-110760123D01*
X154060482Y-110762472D01*
X154052570Y-110763917D01*
X153909582Y-110805459D01*
X153900535Y-110809373D01*
X153773165Y-110884699D01*
X153765374Y-110890743D01*
X153660743Y-110995374D01*
X153654699Y-111003165D01*
X153579373Y-111130535D01*
X153575459Y-111139582D01*
X153533917Y-111282570D01*
X153532472Y-111290482D01*
X153530123Y-111320328D01*
X153530000Y-111323447D01*
X153530000Y-111871070D01*
X152690499Y-111871070D01*
X152690499Y-111717694D01*
X152675275Y-111621567D01*
X152616241Y-111505706D01*
X152524294Y-111413759D01*
X152408433Y-111354725D01*
X152402294Y-111353753D01*
X152402292Y-111353752D01*
X152360975Y-111347208D01*
X152312307Y-111339500D01*
X152030137Y-111339500D01*
X151747694Y-111339501D01*
X151744632Y-111339986D01*
X151744631Y-111339986D01*
X151657703Y-111353753D01*
X151657702Y-111353753D01*
X151651567Y-111354725D01*
X151540334Y-111411401D01*
X151486698Y-111417986D01*
X151441377Y-111388554D01*
X151425577Y-111336876D01*
X151448608Y-111285150D01*
X151605119Y-111128639D01*
X151654095Y-111105801D01*
X151660980Y-111105500D01*
X152838526Y-111105500D01*
X152843255Y-111105847D01*
X152847571Y-111107329D01*
X152894799Y-111105556D01*
X152897762Y-111105500D01*
X152916552Y-111105500D01*
X152920129Y-111104834D01*
X152922172Y-111104645D01*
X152926469Y-111104367D01*
X152946563Y-111103613D01*
X152946565Y-111103613D01*
X152953853Y-111103339D01*
X152965442Y-111098360D01*
X152982155Y-111093283D01*
X152987384Y-111092309D01*
X152987388Y-111092308D01*
X152994559Y-111090972D01*
X153017045Y-111077112D01*
X153027310Y-111071780D01*
X153029094Y-111071014D01*
X153051574Y-111061355D01*
X153056215Y-111057543D01*
X153061606Y-111052152D01*
X153076014Y-111040763D01*
X153078886Y-111038993D01*
X153078889Y-111038990D01*
X153085098Y-111035163D01*
X153102500Y-111012278D01*
X153109523Y-111004235D01*
X155192814Y-108920944D01*
X155196409Y-108917840D01*
X155200509Y-108915836D01*
X155205469Y-108910489D01*
X155211323Y-108906141D01*
X155212773Y-108908093D01*
X155251163Y-108888403D01*
X155303850Y-108900419D01*
G37*
%TD.AperFunction*%
%TA.AperFunction,Conductor*%
G36*
X152249800Y-103343982D02*
G01*
X152254881Y-103348639D01*
X154718699Y-105812457D01*
X154741537Y-105861433D01*
X154741838Y-105868318D01*
X154741838Y-108531682D01*
X154723356Y-108582462D01*
X154718699Y-108587543D01*
X152794881Y-110511361D01*
X152745905Y-110534199D01*
X152739020Y-110534500D01*
X151561473Y-110534500D01*
X151556744Y-110534153D01*
X151552428Y-110532671D01*
X151505201Y-110534444D01*
X151502237Y-110534500D01*
X151483448Y-110534500D01*
X151479871Y-110535166D01*
X151477828Y-110535355D01*
X151473531Y-110535633D01*
X151453437Y-110536387D01*
X151453435Y-110536387D01*
X151446147Y-110536661D01*
X151434558Y-110541640D01*
X151417845Y-110546717D01*
X151412616Y-110547691D01*
X151412612Y-110547692D01*
X151405441Y-110549028D01*
X151386354Y-110560793D01*
X151382955Y-110562888D01*
X151372690Y-110568220D01*
X151348426Y-110578645D01*
X151343785Y-110582457D01*
X151338394Y-110587848D01*
X151323986Y-110599237D01*
X151321114Y-110601007D01*
X151321111Y-110601010D01*
X151314902Y-110604837D01*
X151310486Y-110610645D01*
X151297500Y-110627722D01*
X151290477Y-110635765D01*
X150573933Y-111352309D01*
X150524957Y-111375147D01*
X150482205Y-111366837D01*
X150469592Y-111360410D01*
X150432738Y-111320887D01*
X150429911Y-111266922D01*
X150449598Y-111234160D01*
X151165476Y-110518282D01*
X151169071Y-110515178D01*
X151173171Y-110513174D01*
X151205331Y-110478505D01*
X151207388Y-110476370D01*
X151220654Y-110463104D01*
X151222716Y-110460098D01*
X151224010Y-110458541D01*
X151226852Y-110455305D01*
X151232799Y-110448894D01*
X151245502Y-110435200D01*
X151248206Y-110428423D01*
X151250177Y-110423483D01*
X151258405Y-110408074D01*
X151261412Y-110403690D01*
X151261413Y-110403689D01*
X151265540Y-110397672D01*
X151271638Y-110371977D01*
X151275127Y-110360946D01*
X151282846Y-110341598D01*
X151282846Y-110341597D01*
X151284914Y-110336414D01*
X151285500Y-110330437D01*
X151285500Y-110322808D01*
X151287635Y-110304567D01*
X151288413Y-110301288D01*
X151290098Y-110294188D01*
X151287229Y-110273104D01*
X151286222Y-110265709D01*
X151285500Y-110255055D01*
X151285500Y-109932934D01*
X151303982Y-109882154D01*
X151308639Y-109877073D01*
X152725476Y-108460236D01*
X152729071Y-108457132D01*
X152733171Y-108455128D01*
X152738130Y-108449782D01*
X152738134Y-108449779D01*
X152739541Y-108448262D01*
X152741592Y-108447210D01*
X152743985Y-108445433D01*
X152744281Y-108445831D01*
X152787627Y-108423605D01*
X152840312Y-108435626D01*
X152860382Y-108454227D01*
X152924184Y-108538282D01*
X152931718Y-108545816D01*
X153043177Y-108630419D01*
X153052470Y-108635655D01*
X153182852Y-108687277D01*
X153192611Y-108689756D01*
X153274906Y-108699714D01*
X153279648Y-108700000D01*
X153481070Y-108700000D01*
X153491741Y-108696116D01*
X153495000Y-108690472D01*
X153495000Y-108686070D01*
X153745000Y-108686070D01*
X153748884Y-108696741D01*
X153754528Y-108700000D01*
X153960352Y-108700000D01*
X153965094Y-108699714D01*
X154047389Y-108689756D01*
X154057148Y-108687277D01*
X154187530Y-108635655D01*
X154196823Y-108630419D01*
X154308282Y-108545816D01*
X154315816Y-108538282D01*
X154400419Y-108426823D01*
X154405655Y-108417530D01*
X154457277Y-108287148D01*
X154459756Y-108277389D01*
X154469714Y-108195094D01*
X154470000Y-108190352D01*
X154470000Y-107488930D01*
X154466116Y-107478259D01*
X154460472Y-107475000D01*
X153758930Y-107475000D01*
X153748259Y-107478884D01*
X153745000Y-107484528D01*
X153745000Y-108686070D01*
X153495000Y-108686070D01*
X153495000Y-107211070D01*
X153745000Y-107211070D01*
X153748884Y-107221741D01*
X153754528Y-107225000D01*
X154456070Y-107225000D01*
X154466741Y-107221116D01*
X154470000Y-107215472D01*
X154470000Y-106509648D01*
X154469714Y-106504906D01*
X154459756Y-106422611D01*
X154457277Y-106412852D01*
X154405655Y-106282470D01*
X154400419Y-106273177D01*
X154315816Y-106161718D01*
X154308282Y-106154184D01*
X154196823Y-106069581D01*
X154187530Y-106064345D01*
X154057148Y-106012723D01*
X154047389Y-106010244D01*
X153965094Y-106000286D01*
X153960352Y-106000000D01*
X153758930Y-106000000D01*
X153748259Y-106003884D01*
X153745000Y-106009528D01*
X153745000Y-107211070D01*
X153495000Y-107211070D01*
X153495000Y-106013930D01*
X153491116Y-106003259D01*
X153485472Y-106000000D01*
X153279648Y-106000000D01*
X153274906Y-106000286D01*
X153192611Y-106010244D01*
X153182852Y-106012723D01*
X153052470Y-106064345D01*
X153043172Y-106069584D01*
X152972264Y-106123407D01*
X152920642Y-106139388D01*
X152870825Y-106118447D01*
X152846123Y-106070384D01*
X152845500Y-106060482D01*
X152845500Y-104941473D01*
X152845847Y-104936744D01*
X152847329Y-104932428D01*
X152845556Y-104885200D01*
X152845500Y-104882237D01*
X152845500Y-104863448D01*
X152844834Y-104859871D01*
X152844645Y-104857828D01*
X152844367Y-104853531D01*
X152843613Y-104833437D01*
X152843613Y-104833435D01*
X152843339Y-104826147D01*
X152838360Y-104814558D01*
X152833283Y-104797845D01*
X152832309Y-104792616D01*
X152832308Y-104792612D01*
X152830972Y-104785441D01*
X152817112Y-104762955D01*
X152811780Y-104752690D01*
X152803555Y-104733547D01*
X152801355Y-104728426D01*
X152797543Y-104723785D01*
X152792152Y-104718394D01*
X152780763Y-104703986D01*
X152778993Y-104701114D01*
X152778990Y-104701111D01*
X152775163Y-104694902D01*
X152752279Y-104677500D01*
X152744235Y-104670477D01*
X151808282Y-103734524D01*
X151805178Y-103730929D01*
X151803174Y-103726829D01*
X151768505Y-103694669D01*
X151766370Y-103692612D01*
X151753104Y-103679346D01*
X151750098Y-103677284D01*
X151748541Y-103675990D01*
X151745305Y-103673148D01*
X151725200Y-103654498D01*
X151713487Y-103649825D01*
X151698075Y-103641596D01*
X151687672Y-103634459D01*
X151661973Y-103628361D01*
X151650942Y-103624872D01*
X151626414Y-103615086D01*
X151620437Y-103614500D01*
X151612807Y-103614500D01*
X151594568Y-103612365D01*
X151584188Y-103609902D01*
X151576958Y-103610886D01*
X151576957Y-103610886D01*
X151555709Y-103613778D01*
X151545055Y-103614500D01*
X149681474Y-103614500D01*
X149676745Y-103614153D01*
X149672429Y-103612671D01*
X149625202Y-103614444D01*
X149622238Y-103614500D01*
X149603448Y-103614500D01*
X149599871Y-103615166D01*
X149597828Y-103615355D01*
X149593531Y-103615633D01*
X149573437Y-103616387D01*
X149573435Y-103616387D01*
X149566147Y-103616661D01*
X149554558Y-103621640D01*
X149537845Y-103626717D01*
X149532616Y-103627691D01*
X149532612Y-103627692D01*
X149525441Y-103629028D01*
X149509935Y-103638586D01*
X149502955Y-103642888D01*
X149492690Y-103648220D01*
X149468426Y-103658645D01*
X149463785Y-103662457D01*
X149458394Y-103667848D01*
X149443986Y-103679237D01*
X149441114Y-103681007D01*
X149441111Y-103681010D01*
X149434902Y-103684837D01*
X149430486Y-103690645D01*
X149417500Y-103707722D01*
X149410477Y-103715765D01*
X148847733Y-104278509D01*
X148798757Y-104301347D01*
X148759743Y-104294819D01*
X148676638Y-104257818D01*
X148672592Y-104256958D01*
X148672589Y-104256957D01*
X148532787Y-104227241D01*
X148486959Y-104198604D01*
X148470260Y-104147210D01*
X148490504Y-104097105D01*
X148507057Y-104083154D01*
X148552337Y-104054584D01*
X148554716Y-104053083D01*
X148590050Y-104023011D01*
X148684858Y-103915660D01*
X148710331Y-103876882D01*
X148771200Y-103747237D01*
X148784766Y-103702865D01*
X148787573Y-103684837D01*
X148806369Y-103564117D01*
X148806369Y-103564113D01*
X148806800Y-103561347D01*
X148807367Y-103514953D01*
X148804311Y-103491582D01*
X148803644Y-103481339D01*
X148803644Y-103404500D01*
X148822126Y-103353720D01*
X148868926Y-103326700D01*
X148882644Y-103325500D01*
X152199020Y-103325500D01*
X152249800Y-103343982D01*
G37*
%TD.AperFunction*%
%TA.AperFunction,Conductor*%
G36*
X151469800Y-104203982D02*
G01*
X151474881Y-104208639D01*
X152251361Y-104985119D01*
X152274199Y-105034095D01*
X152274500Y-105040980D01*
X152274500Y-106924129D01*
X152256018Y-106974909D01*
X152209218Y-107001929D01*
X152156000Y-106992545D01*
X152127084Y-106963629D01*
X152112499Y-106938367D01*
X152112498Y-106938366D01*
X152110429Y-106934782D01*
X152043334Y-106860265D01*
X151983445Y-106793751D01*
X151983442Y-106793748D01*
X151980673Y-106790673D01*
X151823791Y-106676691D01*
X151820007Y-106675006D01*
X151820003Y-106675004D01*
X151650421Y-106599502D01*
X151650419Y-106599501D01*
X151646638Y-106597818D01*
X151642592Y-106596958D01*
X151642589Y-106596957D01*
X151461002Y-106558359D01*
X151460998Y-106558359D01*
X151456959Y-106557500D01*
X151414217Y-106557500D01*
X151363437Y-106539018D01*
X151336417Y-106492218D01*
X151345801Y-106439000D01*
X151382085Y-106406330D01*
X151430003Y-106384996D01*
X151430007Y-106384994D01*
X151433791Y-106383309D01*
X151590673Y-106269327D01*
X151593442Y-106266252D01*
X151593445Y-106266249D01*
X151711728Y-106134881D01*
X151720429Y-106125218D01*
X151817387Y-105957281D01*
X151877311Y-105772855D01*
X151878127Y-105765097D01*
X151897148Y-105584120D01*
X151897581Y-105580000D01*
X151884414Y-105454722D01*
X151877744Y-105391263D01*
X151877744Y-105391261D01*
X151877311Y-105387145D01*
X151817387Y-105202719D01*
X151720429Y-105034782D01*
X151675712Y-104985119D01*
X151593445Y-104893751D01*
X151593442Y-104893748D01*
X151590673Y-104890673D01*
X151433791Y-104776691D01*
X151430007Y-104775006D01*
X151430003Y-104775004D01*
X151260421Y-104699502D01*
X151260419Y-104699501D01*
X151256638Y-104697818D01*
X151252592Y-104696958D01*
X151252589Y-104696957D01*
X151071002Y-104658359D01*
X151070998Y-104658359D01*
X151066959Y-104657500D01*
X150873041Y-104657500D01*
X150869002Y-104658359D01*
X150868998Y-104658359D01*
X150687411Y-104696957D01*
X150687408Y-104696958D01*
X150683362Y-104697818D01*
X150679581Y-104699501D01*
X150679579Y-104699502D01*
X150509998Y-104775004D01*
X150509994Y-104775006D01*
X150506210Y-104776691D01*
X150502856Y-104779128D01*
X150502854Y-104779129D01*
X150431487Y-104830980D01*
X150349327Y-104890673D01*
X150346558Y-104893748D01*
X150346555Y-104893751D01*
X150264288Y-104985119D01*
X150219571Y-105034782D01*
X150122613Y-105202719D01*
X150062689Y-105387145D01*
X150062256Y-105391261D01*
X150062256Y-105391263D01*
X150055586Y-105454722D01*
X150042419Y-105580000D01*
X150042852Y-105584120D01*
X150061874Y-105765097D01*
X150062689Y-105772855D01*
X150083075Y-105835596D01*
X150122613Y-105957281D01*
X150121603Y-105957609D01*
X150125065Y-106007174D01*
X150104988Y-106041254D01*
X149734524Y-106411718D01*
X149730929Y-106414822D01*
X149726829Y-106416826D01*
X149721869Y-106422173D01*
X149694669Y-106451495D01*
X149692612Y-106453630D01*
X149679346Y-106466896D01*
X149677284Y-106469902D01*
X149675990Y-106471459D01*
X149673149Y-106474694D01*
X149654498Y-106494800D01*
X149651795Y-106501576D01*
X149649825Y-106506513D01*
X149641596Y-106521925D01*
X149634459Y-106532328D01*
X149628486Y-106557500D01*
X149628361Y-106558027D01*
X149624872Y-106569058D01*
X149615086Y-106593586D01*
X149614500Y-106599563D01*
X149614500Y-106607193D01*
X149612365Y-106625432D01*
X149609902Y-106635812D01*
X149610886Y-106643042D01*
X149610886Y-106643043D01*
X149613778Y-106664291D01*
X149614500Y-106674945D01*
X149614500Y-107899020D01*
X149596018Y-107949800D01*
X149591361Y-107954881D01*
X149064881Y-108481361D01*
X149015905Y-108504199D01*
X149009020Y-108504500D01*
X148938051Y-108504500D01*
X148887271Y-108486018D01*
X148860251Y-108439218D01*
X148869635Y-108386000D01*
X148902432Y-108354986D01*
X148931436Y-108340335D01*
X148937919Y-108336222D01*
X149000781Y-108287108D01*
X149006797Y-108277479D01*
X149006159Y-108272936D01*
X148399851Y-107666628D01*
X148389557Y-107661828D01*
X148383263Y-107663514D01*
X147777416Y-108269361D01*
X147772616Y-108279655D01*
X147773954Y-108284650D01*
X147806698Y-108312518D01*
X147813017Y-108316910D01*
X147883925Y-108356539D01*
X147919235Y-108397447D01*
X147919990Y-108451481D01*
X147885835Y-108493358D01*
X147845384Y-108504500D01*
X146001473Y-108504500D01*
X145996744Y-108504153D01*
X145992428Y-108502671D01*
X145945201Y-108504444D01*
X145942237Y-108504500D01*
X145923448Y-108504500D01*
X145919871Y-108505166D01*
X145917828Y-108505355D01*
X145913531Y-108505633D01*
X145893437Y-108506387D01*
X145893435Y-108506387D01*
X145886147Y-108506661D01*
X145874558Y-108511640D01*
X145857845Y-108516717D01*
X145852616Y-108517691D01*
X145852612Y-108517692D01*
X145845441Y-108519028D01*
X145826354Y-108530793D01*
X145822955Y-108532888D01*
X145812690Y-108538220D01*
X145788426Y-108548645D01*
X145783785Y-108552457D01*
X145778394Y-108557848D01*
X145763986Y-108569237D01*
X145761114Y-108571007D01*
X145761111Y-108571010D01*
X145754902Y-108574837D01*
X145750486Y-108580645D01*
X145737500Y-108597722D01*
X145730477Y-108605765D01*
X144964524Y-109371718D01*
X144960929Y-109374822D01*
X144956829Y-109376826D01*
X144951869Y-109382173D01*
X144924669Y-109411495D01*
X144922612Y-109413630D01*
X144909346Y-109426896D01*
X144907284Y-109429902D01*
X144905990Y-109431459D01*
X144903165Y-109434676D01*
X144887417Y-109451654D01*
X144839333Y-109476312D01*
X144786647Y-109464293D01*
X144754013Y-109421221D01*
X144750500Y-109397926D01*
X144750500Y-109150828D01*
X144740070Y-109079974D01*
X144687176Y-108972243D01*
X144681712Y-108966788D01*
X144606857Y-108892064D01*
X144602238Y-108887453D01*
X144494415Y-108834747D01*
X144468225Y-108830926D01*
X144426999Y-108824912D01*
X144426994Y-108824912D01*
X144424172Y-108824500D01*
X144196616Y-108824500D01*
X144145836Y-108806018D01*
X144118816Y-108759218D01*
X144128200Y-108706000D01*
X144140755Y-108689639D01*
X144385476Y-108444918D01*
X144389071Y-108441814D01*
X144393171Y-108439810D01*
X144425331Y-108405141D01*
X144427388Y-108403006D01*
X144440654Y-108389740D01*
X144442716Y-108386734D01*
X144444010Y-108385177D01*
X144446852Y-108381941D01*
X144460540Y-108367185D01*
X144465502Y-108361836D01*
X144470177Y-108350119D01*
X144478405Y-108334710D01*
X144481412Y-108330326D01*
X144481413Y-108330325D01*
X144485540Y-108324308D01*
X144491638Y-108298613D01*
X144495127Y-108287582D01*
X144502846Y-108268234D01*
X144502846Y-108268233D01*
X144504914Y-108263050D01*
X144505500Y-108257073D01*
X144505500Y-108249444D01*
X144507635Y-108231203D01*
X144508413Y-108227924D01*
X144510098Y-108220824D01*
X144506222Y-108192345D01*
X144505500Y-108181691D01*
X144505500Y-108053191D01*
X144523982Y-108002411D01*
X144570782Y-107975391D01*
X144624000Y-107984775D01*
X144652916Y-108013692D01*
X144659571Y-108025218D01*
X144667374Y-108033884D01*
X144786555Y-108166249D01*
X144786558Y-108166252D01*
X144789327Y-108169327D01*
X144946209Y-108283309D01*
X144949993Y-108284994D01*
X144949997Y-108284996D01*
X145119579Y-108360498D01*
X145119581Y-108360499D01*
X145123362Y-108362182D01*
X145127408Y-108363042D01*
X145127411Y-108363043D01*
X145308998Y-108401641D01*
X145309002Y-108401641D01*
X145313041Y-108402500D01*
X145506959Y-108402500D01*
X145510998Y-108401641D01*
X145511002Y-108401641D01*
X145692589Y-108363043D01*
X145692592Y-108363042D01*
X145696638Y-108362182D01*
X145700419Y-108360499D01*
X145700421Y-108360498D01*
X145870003Y-108284996D01*
X145870007Y-108284994D01*
X145873791Y-108283309D01*
X146030673Y-108169327D01*
X146033442Y-108166252D01*
X146033445Y-108166249D01*
X146152626Y-108033884D01*
X146160429Y-108025218D01*
X146257387Y-107857281D01*
X146317311Y-107672855D01*
X146317966Y-107666628D01*
X146337148Y-107484120D01*
X146337581Y-107480000D01*
X146336493Y-107469648D01*
X147373525Y-107469648D01*
X147389486Y-107659724D01*
X147390872Y-107667278D01*
X147443449Y-107850635D01*
X147446277Y-107857777D01*
X147533467Y-108027430D01*
X147537626Y-108033884D01*
X147582789Y-108090866D01*
X147592460Y-108096815D01*
X147597092Y-108096131D01*
X148203372Y-107489851D01*
X148207759Y-107480443D01*
X148571828Y-107480443D01*
X148573514Y-107486737D01*
X149179596Y-108092819D01*
X149189890Y-108097619D01*
X149194985Y-108096254D01*
X149218427Y-108069097D01*
X149222860Y-108062813D01*
X149317074Y-107896968D01*
X149320202Y-107889942D01*
X149380407Y-107708956D01*
X149382110Y-107701463D01*
X149406224Y-107510588D01*
X149406532Y-107506178D01*
X149406866Y-107482214D01*
X149406681Y-107477800D01*
X149387907Y-107286328D01*
X149386413Y-107278784D01*
X149331285Y-107096191D01*
X149328355Y-107089080D01*
X149238806Y-106920664D01*
X149234556Y-106914268D01*
X149197519Y-106868857D01*
X149187765Y-106863042D01*
X149182956Y-106863821D01*
X148576628Y-107470149D01*
X148571828Y-107480443D01*
X148207759Y-107480443D01*
X148208172Y-107479557D01*
X148206486Y-107473263D01*
X147600839Y-106867616D01*
X147590545Y-106862816D01*
X147585649Y-106864128D01*
X147553431Y-106902524D01*
X147549081Y-106908877D01*
X147457196Y-107076015D01*
X147454165Y-107083087D01*
X147396493Y-107264894D01*
X147394895Y-107272410D01*
X147373632Y-107461968D01*
X147373525Y-107469648D01*
X146336493Y-107469648D01*
X146333548Y-107441623D01*
X146346620Y-107389190D01*
X146356253Y-107377505D01*
X147051391Y-106682367D01*
X147773130Y-106682367D01*
X147773860Y-106687083D01*
X148380149Y-107293372D01*
X148390443Y-107298172D01*
X148396737Y-107296486D01*
X149002218Y-106691005D01*
X149007018Y-106680711D01*
X149005732Y-106675912D01*
X148961622Y-106639419D01*
X148955239Y-106635114D01*
X148787459Y-106544396D01*
X148780377Y-106541419D01*
X148598170Y-106485017D01*
X148590629Y-106483469D01*
X148400942Y-106463532D01*
X148393252Y-106463478D01*
X148203302Y-106480765D01*
X148195746Y-106482206D01*
X148012773Y-106536058D01*
X148005636Y-106538942D01*
X147836613Y-106627305D01*
X147830170Y-106631521D01*
X147779015Y-106672650D01*
X147773130Y-106682367D01*
X147051391Y-106682367D01*
X147265476Y-106468282D01*
X147269071Y-106465178D01*
X147273171Y-106463174D01*
X147305331Y-106428505D01*
X147307388Y-106426370D01*
X147320654Y-106413104D01*
X147322716Y-106410098D01*
X147324010Y-106408541D01*
X147326852Y-106405305D01*
X147340540Y-106390549D01*
X147345502Y-106385200D01*
X147350175Y-106373487D01*
X147358404Y-106358075D01*
X147365541Y-106347672D01*
X147371639Y-106321973D01*
X147375129Y-106310938D01*
X147384914Y-106286414D01*
X147385500Y-106280437D01*
X147385500Y-106272807D01*
X147387635Y-106254566D01*
X147388413Y-106251287D01*
X147390098Y-106244188D01*
X147386222Y-106215709D01*
X147385500Y-106205055D01*
X147385500Y-105532522D01*
X147403982Y-105481742D01*
X147450782Y-105454722D01*
X147504000Y-105464106D01*
X147539632Y-105508107D01*
X147542613Y-105517281D01*
X147639571Y-105685218D01*
X147662815Y-105711033D01*
X147766555Y-105826249D01*
X147766558Y-105826252D01*
X147769327Y-105829327D01*
X147926209Y-105943309D01*
X147929993Y-105944994D01*
X147929997Y-105944996D01*
X148099579Y-106020498D01*
X148099581Y-106020499D01*
X148103362Y-106022182D01*
X148107408Y-106023042D01*
X148107411Y-106023043D01*
X148288998Y-106061641D01*
X148289002Y-106061641D01*
X148293041Y-106062500D01*
X148486959Y-106062500D01*
X148490998Y-106061641D01*
X148491002Y-106061641D01*
X148672589Y-106023043D01*
X148672592Y-106023042D01*
X148676638Y-106022182D01*
X148680419Y-106020499D01*
X148680421Y-106020498D01*
X148850003Y-105944996D01*
X148850007Y-105944994D01*
X148853791Y-105943309D01*
X149010673Y-105829327D01*
X149013442Y-105826252D01*
X149013445Y-105826249D01*
X149117185Y-105711033D01*
X149140429Y-105685218D01*
X149237387Y-105517281D01*
X149297311Y-105332855D01*
X149317581Y-105140000D01*
X149297311Y-104947145D01*
X149237387Y-104762719D01*
X149238397Y-104762391D01*
X149234935Y-104712826D01*
X149255012Y-104678746D01*
X149725119Y-104208639D01*
X149774095Y-104185801D01*
X149780980Y-104185500D01*
X151419020Y-104185500D01*
X151469800Y-104203982D01*
G37*
%TD.AperFunction*%
%TA.AperFunction,Conductor*%
G36*
X146089101Y-102348482D02*
G01*
X146116121Y-102395282D01*
X146108711Y-102444865D01*
X146074725Y-102511567D01*
X146073753Y-102517706D01*
X146073752Y-102517708D01*
X146069230Y-102546259D01*
X146059500Y-102607693D01*
X146059501Y-103972306D01*
X146059986Y-103975368D01*
X146059986Y-103975369D01*
X146072532Y-104054584D01*
X146074725Y-104068433D01*
X146077546Y-104073969D01*
X146114102Y-104145714D01*
X146133759Y-104184294D01*
X146225706Y-104276241D01*
X146341567Y-104335275D01*
X146347706Y-104336247D01*
X146347708Y-104336248D01*
X146437693Y-104350500D01*
X146437503Y-104351702D01*
X146482798Y-104372358D01*
X146503693Y-104419694D01*
X146504784Y-104419448D01*
X146506036Y-104425002D01*
X146506356Y-104425728D01*
X146506661Y-104433853D01*
X146511640Y-104445442D01*
X146516717Y-104462155D01*
X146517691Y-104467384D01*
X146517692Y-104467388D01*
X146519028Y-104474559D01*
X146529232Y-104491114D01*
X146532888Y-104497045D01*
X146538220Y-104507310D01*
X146548645Y-104531574D01*
X146552457Y-104536215D01*
X146557848Y-104541606D01*
X146569237Y-104556014D01*
X146571007Y-104558886D01*
X146571010Y-104558889D01*
X146574837Y-104565098D01*
X146588439Y-104575441D01*
X146597722Y-104582500D01*
X146605765Y-104589523D01*
X146791361Y-104775119D01*
X146814199Y-104824095D01*
X146814500Y-104830980D01*
X146814500Y-105218255D01*
X146796018Y-105269035D01*
X146749218Y-105296055D01*
X146696000Y-105286671D01*
X146660367Y-105242668D01*
X146652435Y-105218255D01*
X146647387Y-105202719D01*
X146550429Y-105034782D01*
X146505712Y-104985119D01*
X146423445Y-104893751D01*
X146423442Y-104893748D01*
X146420673Y-104890673D01*
X146263791Y-104776691D01*
X146260007Y-104775006D01*
X146260003Y-104775004D01*
X146090421Y-104699502D01*
X146090419Y-104699501D01*
X146086638Y-104697818D01*
X146082592Y-104696958D01*
X146082589Y-104696957D01*
X145901002Y-104658359D01*
X145900998Y-104658359D01*
X145896959Y-104657500D01*
X145703041Y-104657500D01*
X145699002Y-104658359D01*
X145698998Y-104658359D01*
X145517411Y-104696957D01*
X145517408Y-104696958D01*
X145513362Y-104697818D01*
X145509581Y-104699501D01*
X145509579Y-104699502D01*
X145339998Y-104775004D01*
X145339994Y-104775006D01*
X145336210Y-104776691D01*
X145332856Y-104779128D01*
X145332854Y-104779129D01*
X145261487Y-104830980D01*
X145179327Y-104890673D01*
X145176558Y-104893748D01*
X145176555Y-104893751D01*
X145094288Y-104985119D01*
X145049571Y-105034782D01*
X144952613Y-105202719D01*
X144892689Y-105387145D01*
X144892256Y-105391261D01*
X144892256Y-105391263D01*
X144885586Y-105454722D01*
X144872419Y-105580000D01*
X144872852Y-105584120D01*
X144891874Y-105765097D01*
X144892689Y-105772855D01*
X144952613Y-105957281D01*
X145049571Y-106125218D01*
X145058272Y-106134881D01*
X145176555Y-106266249D01*
X145176558Y-106266252D01*
X145179327Y-106269327D01*
X145336209Y-106383309D01*
X145339993Y-106384994D01*
X145339997Y-106384996D01*
X145387915Y-106406330D01*
X145426788Y-106443869D01*
X145432436Y-106497612D01*
X145402218Y-106542412D01*
X145355783Y-106557500D01*
X145313041Y-106557500D01*
X145309002Y-106558359D01*
X145308998Y-106558359D01*
X145127411Y-106596957D01*
X145127408Y-106596958D01*
X145123362Y-106597818D01*
X145119581Y-106599501D01*
X145119579Y-106599502D01*
X144949998Y-106675004D01*
X144949994Y-106675006D01*
X144946210Y-106676691D01*
X144942856Y-106679128D01*
X144942854Y-106679129D01*
X144926508Y-106691005D01*
X144789327Y-106790673D01*
X144786558Y-106793748D01*
X144786555Y-106793751D01*
X144726666Y-106860265D01*
X144659571Y-106934782D01*
X144657502Y-106938366D01*
X144657499Y-106938370D01*
X144652916Y-106946308D01*
X144611520Y-106981045D01*
X144557481Y-106981045D01*
X144516084Y-106946310D01*
X144505500Y-106906809D01*
X144505500Y-104204715D01*
X144514110Y-104168850D01*
X144516552Y-104164057D01*
X144565275Y-104068433D01*
X144567469Y-104054584D01*
X144575724Y-104002461D01*
X144580500Y-103972307D01*
X144580499Y-102607694D01*
X144565275Y-102511567D01*
X144531289Y-102444865D01*
X144524704Y-102391229D01*
X144554136Y-102345908D01*
X144601679Y-102330000D01*
X146038321Y-102330000D01*
X146089101Y-102348482D01*
G37*
%TD.AperFunction*%
%TA.AperFunction,Conductor*%
G36*
X155311780Y-102348482D02*
G01*
X155338800Y-102395282D01*
X155340000Y-102409000D01*
X155340000Y-105435520D01*
X155321518Y-105486300D01*
X155274718Y-105513320D01*
X155221500Y-105503936D01*
X155205139Y-105491381D01*
X152588282Y-102874524D01*
X152585178Y-102870929D01*
X152583174Y-102866829D01*
X152548505Y-102834669D01*
X152546370Y-102832612D01*
X152533104Y-102819346D01*
X152530098Y-102817284D01*
X152528541Y-102815990D01*
X152525305Y-102813148D01*
X152510549Y-102799460D01*
X152505200Y-102794498D01*
X152493487Y-102789825D01*
X152478075Y-102781596D01*
X152467672Y-102774459D01*
X152441973Y-102768361D01*
X152430942Y-102764872D01*
X152406414Y-102755086D01*
X152400437Y-102754500D01*
X152392807Y-102754500D01*
X152374568Y-102752365D01*
X152364188Y-102749902D01*
X152356958Y-102750886D01*
X152356957Y-102750886D01*
X152335709Y-102753778D01*
X152325055Y-102754500D01*
X148795417Y-102754500D01*
X148744637Y-102736018D01*
X148723108Y-102707317D01*
X148719772Y-102699736D01*
X148719767Y-102699727D01*
X148718636Y-102697156D01*
X148694118Y-102657767D01*
X148601961Y-102548132D01*
X148593869Y-102540897D01*
X148569463Y-102519075D01*
X148569458Y-102519071D01*
X148567372Y-102517206D01*
X148565043Y-102515656D01*
X148565037Y-102515651D01*
X148503611Y-102474763D01*
X148471581Y-102431239D01*
X148475021Y-102377309D01*
X148512322Y-102338208D01*
X148547386Y-102330000D01*
X155261000Y-102330000D01*
X155311780Y-102348482D01*
G37*
%TD.AperFunction*%
%TD*%
M02*
