%TF.GenerationSoftware,KiCad,Pcbnew,(6.0.1-0)*%
%TF.CreationDate,2022-07-02T14:58:06-04:00*%
%TF.ProjectId,Saturn 8pin mini DIN mod,53617475-726e-4203-9870-696e206d696e,rev?*%
%TF.SameCoordinates,Original*%
%TF.FileFunction,Copper,L2,Bot*%
%TF.FilePolarity,Positive*%
%FSLAX46Y46*%
G04 Gerber Fmt 4.6, Leading zero omitted, Abs format (unit mm)*
G04 Created by KiCad (PCBNEW (6.0.1-0)) date 2022-07-02 14:58:06*
%MOMM*%
%LPD*%
G01*
G04 APERTURE LIST*
G04 Aperture macros list*
%AMRoundRect*
0 Rectangle with rounded corners*
0 $1 Rounding radius*
0 $2 $3 $4 $5 $6 $7 $8 $9 X,Y pos of 4 corners*
0 Add a 4 corners polygon primitive as box body*
4,1,4,$2,$3,$4,$5,$6,$7,$8,$9,$2,$3,0*
0 Add four circle primitives for the rounded corners*
1,1,$1+$1,$2,$3*
1,1,$1+$1,$4,$5*
1,1,$1+$1,$6,$7*
1,1,$1+$1,$8,$9*
0 Add four rect primitives between the rounded corners*
20,1,$1+$1,$2,$3,$4,$5,0*
20,1,$1+$1,$4,$5,$6,$7,0*
20,1,$1+$1,$6,$7,$8,$9,0*
20,1,$1+$1,$8,$9,$2,$3,0*%
G04 Aperture macros list end*
%TA.AperFunction,SMDPad,CuDef*%
%ADD10RoundRect,0.250000X-0.250000X-0.500000X0.250000X-0.500000X0.250000X0.500000X-0.250000X0.500000X0*%
%TD*%
%TA.AperFunction,ComponentPad*%
%ADD11C,1.524000*%
%TD*%
%TA.AperFunction,ComponentPad*%
%ADD12RoundRect,0.300000X-0.300000X-0.800000X0.300000X-0.800000X0.300000X0.800000X-0.300000X0.800000X0*%
%TD*%
%TA.AperFunction,ViaPad*%
%ADD13C,0.800000*%
%TD*%
%TA.AperFunction,Conductor*%
%ADD14C,0.250000*%
%TD*%
G04 APERTURE END LIST*
D10*
%TO.P,P1,1,CSync*%
%TO.N,/CSync*%
X145920000Y-112250000D03*
%TO.P,P1,2,Audio_L*%
%TO.N,/Audio L*%
X147870000Y-112250000D03*
%TO.P,P1,3,Audio_R*%
%TO.N,/Audio R*%
X149820000Y-112250000D03*
%TO.P,P1,4,+5V*%
%TO.N,/+5V*%
X144230000Y-112250000D03*
%TO.P,P1,7,B*%
%TO.N,/B*%
X152300000Y-112250000D03*
%TD*%
D11*
%TO.P,P2,1,Audio_R*%
%TO.N,/Audio R*%
X147390000Y-110150000D03*
%TO.P,P2,2,Audio_L*%
%TO.N,/Audio L*%
X149390000Y-110150000D03*
%TO.P,P2,3,Sync*%
%TO.N,/Sync_Decoupled*%
X145410000Y-107480000D03*
%TO.P,P2,4,GND_Shield*%
%TO.N,GND*%
X148390000Y-107480000D03*
D12*
X153620000Y-107350000D03*
X143150000Y-107350000D03*
D11*
%TO.P,P2,5,+5V*%
%TO.N,/+5V*%
X151360000Y-107480000D03*
%TO.P,P2,6,B*%
%TO.N,/B*%
X145800000Y-105580000D03*
%TO.P,P2,7,G*%
%TO.N,/G*%
X148390000Y-105140000D03*
%TO.P,P2,8,R*%
%TO.N,/R*%
X150970000Y-105580000D03*
%TD*%
D13*
%TO.N,GND*%
X145860000Y-110230000D03*
%TO.N,/CSync*%
X143680000Y-110600000D03*
%TO.N,GND*%
X154550000Y-103520000D03*
X141610000Y-111990000D03*
X152350000Y-109860000D03*
X154540000Y-111980000D03*
X145320000Y-103280000D03*
%TD*%
D14*
%TO.N,/CSync*%
X143680000Y-110600000D02*
X144500000Y-110600000D01*
X145920000Y-112020000D02*
X145920000Y-112250000D01*
X144500000Y-110600000D02*
X145920000Y-112020000D01*
%TO.N,/+5V*%
X142340000Y-109660000D02*
X142850000Y-109150000D01*
X142950000Y-112250000D02*
X142340000Y-111640000D01*
X142340000Y-111640000D02*
X142340000Y-109660000D01*
X146920000Y-108120000D02*
X146920000Y-106820000D01*
X142850000Y-109150000D02*
X145890000Y-109150000D01*
X144230000Y-112250000D02*
X142950000Y-112250000D01*
X145890000Y-109150000D02*
X146920000Y-108120000D01*
X149350000Y-106290000D02*
X150540000Y-107480000D01*
X150540000Y-107480000D02*
X151360000Y-107480000D01*
X146920000Y-106820000D02*
X147450000Y-106290000D01*
X147450000Y-106290000D02*
X149350000Y-106290000D01*
%TO.N,/B*%
X152300000Y-112250000D02*
X152300000Y-112020000D01*
X152170000Y-103390000D02*
X147990000Y-103390000D01*
X154670000Y-109650000D02*
X154670000Y-105890000D01*
X154670000Y-105890000D02*
X152170000Y-103390000D01*
X152300000Y-112020000D02*
X154670000Y-109650000D01*
X147990000Y-103390000D02*
X145800000Y-105580000D01*
%TO.N,/Audio L*%
X147870000Y-111670000D02*
X147870000Y-112250000D01*
X149390000Y-110150000D02*
X147870000Y-111670000D01*
%TO.N,/Audio R*%
X148810000Y-108730000D02*
X150400000Y-108730000D01*
X150400000Y-108730000D02*
X150890000Y-109220000D01*
X150890000Y-109220000D02*
X150890000Y-111180000D01*
X147390000Y-110150000D02*
X148810000Y-108730000D01*
X150890000Y-111180000D02*
X149820000Y-112250000D01*
%TD*%
%TA.AperFunction,Conductor*%
%TO.N,GND*%
G36*
X155311780Y-102348482D02*
G01*
X155338800Y-102395282D01*
X155340000Y-102409000D01*
X155340000Y-112941000D01*
X155321518Y-112991780D01*
X155274718Y-113018800D01*
X155261000Y-113020000D01*
X153002060Y-113020000D01*
X152951280Y-113001518D01*
X152924260Y-112954718D01*
X152931670Y-112905135D01*
X152942453Y-112883971D01*
X152942454Y-112883969D01*
X152945275Y-112878433D01*
X152960500Y-112782307D01*
X152960499Y-111795980D01*
X152978981Y-111745201D01*
X152983638Y-111740120D01*
X154835476Y-109888282D01*
X154839071Y-109885178D01*
X154843171Y-109883174D01*
X154875331Y-109848505D01*
X154877388Y-109846370D01*
X154890654Y-109833104D01*
X154892716Y-109830098D01*
X154894010Y-109828541D01*
X154896852Y-109825305D01*
X154910540Y-109810549D01*
X154915502Y-109805200D01*
X154920177Y-109793483D01*
X154928405Y-109778074D01*
X154931412Y-109773690D01*
X154931413Y-109773689D01*
X154935540Y-109767672D01*
X154937314Y-109760200D01*
X154941638Y-109741977D01*
X154945127Y-109730946D01*
X154952846Y-109711598D01*
X154952846Y-109711597D01*
X154954914Y-109706414D01*
X154955500Y-109700437D01*
X154955500Y-109692808D01*
X154957635Y-109674567D01*
X154958413Y-109671288D01*
X154960098Y-109664188D01*
X154956222Y-109635709D01*
X154955500Y-109625055D01*
X154955500Y-105941474D01*
X154955847Y-105936745D01*
X154957329Y-105932429D01*
X154955556Y-105885201D01*
X154955500Y-105882238D01*
X154955500Y-105863448D01*
X154954834Y-105859871D01*
X154954645Y-105857828D01*
X154954367Y-105853531D01*
X154953613Y-105833437D01*
X154953613Y-105833435D01*
X154953339Y-105826147D01*
X154948360Y-105814558D01*
X154943283Y-105797845D01*
X154942309Y-105792616D01*
X154942308Y-105792612D01*
X154940972Y-105785441D01*
X154927112Y-105762955D01*
X154921780Y-105752690D01*
X154913555Y-105733547D01*
X154911355Y-105728426D01*
X154907543Y-105723785D01*
X154902152Y-105718394D01*
X154890763Y-105703986D01*
X154888993Y-105701114D01*
X154888990Y-105701111D01*
X154885163Y-105694902D01*
X154862279Y-105677500D01*
X154854235Y-105670477D01*
X152408282Y-103224524D01*
X152405178Y-103220929D01*
X152403174Y-103216829D01*
X152368505Y-103184669D01*
X152366370Y-103182612D01*
X152353104Y-103169346D01*
X152350098Y-103167284D01*
X152348541Y-103165990D01*
X152345305Y-103163148D01*
X152325200Y-103144498D01*
X152313487Y-103139825D01*
X152298075Y-103131596D01*
X152287672Y-103124459D01*
X152261973Y-103118361D01*
X152250942Y-103114872D01*
X152226414Y-103105086D01*
X152220437Y-103104500D01*
X152212807Y-103104500D01*
X152194568Y-103102365D01*
X152184188Y-103099902D01*
X152176958Y-103100886D01*
X152176957Y-103100886D01*
X152155709Y-103103778D01*
X152145055Y-103104500D01*
X148041481Y-103104500D01*
X148036747Y-103104152D01*
X148032429Y-103102670D01*
X147986951Y-103104378D01*
X147985186Y-103104444D01*
X147982222Y-103104500D01*
X147963448Y-103104500D01*
X147959874Y-103105166D01*
X147957843Y-103105353D01*
X147953548Y-103105632D01*
X147949066Y-103105800D01*
X147933434Y-103106387D01*
X147933432Y-103106387D01*
X147926147Y-103106661D01*
X147914554Y-103111641D01*
X147897846Y-103116718D01*
X147885441Y-103119028D01*
X147869935Y-103128586D01*
X147862964Y-103132883D01*
X147852695Y-103138217D01*
X147828426Y-103148644D01*
X147823786Y-103152456D01*
X147818394Y-103157848D01*
X147803986Y-103169237D01*
X147801114Y-103171007D01*
X147801111Y-103171010D01*
X147794902Y-103174837D01*
X147790486Y-103180645D01*
X147777500Y-103197722D01*
X147770477Y-103205765D01*
X146257733Y-104718509D01*
X146208757Y-104741347D01*
X146169743Y-104734819D01*
X146086638Y-104697818D01*
X146082592Y-104696958D01*
X146082589Y-104696957D01*
X145901002Y-104658359D01*
X145900998Y-104658359D01*
X145896959Y-104657500D01*
X145703041Y-104657500D01*
X145699002Y-104658359D01*
X145698998Y-104658359D01*
X145517411Y-104696957D01*
X145517408Y-104696958D01*
X145513362Y-104697818D01*
X145509581Y-104699501D01*
X145509579Y-104699502D01*
X145339998Y-104775004D01*
X145339994Y-104775006D01*
X145336210Y-104776691D01*
X145179327Y-104890673D01*
X145176558Y-104893748D01*
X145176555Y-104893751D01*
X145092031Y-104987625D01*
X145049571Y-105034782D01*
X144952613Y-105202719D01*
X144892689Y-105387145D01*
X144872419Y-105580000D01*
X144872852Y-105584120D01*
X144890570Y-105752690D01*
X144892689Y-105772855D01*
X144952613Y-105957281D01*
X145049571Y-106125218D01*
X145052340Y-106128293D01*
X145176555Y-106266249D01*
X145176558Y-106266252D01*
X145179327Y-106269327D01*
X145336209Y-106383309D01*
X145339993Y-106384994D01*
X145339997Y-106384996D01*
X145387915Y-106406330D01*
X145426788Y-106443869D01*
X145432436Y-106497612D01*
X145402218Y-106542412D01*
X145355783Y-106557500D01*
X145313041Y-106557500D01*
X145309002Y-106558359D01*
X145308998Y-106558359D01*
X145127411Y-106596957D01*
X145127408Y-106596958D01*
X145123362Y-106597818D01*
X145119581Y-106599501D01*
X145119579Y-106599502D01*
X144949998Y-106675004D01*
X144949994Y-106675006D01*
X144946210Y-106676691D01*
X144942856Y-106679128D01*
X144942854Y-106679129D01*
X144858384Y-106740500D01*
X144789327Y-106790673D01*
X144786558Y-106793748D01*
X144786555Y-106793751D01*
X144726666Y-106860265D01*
X144659571Y-106934782D01*
X144562613Y-107102719D01*
X144502689Y-107287145D01*
X144502256Y-107291261D01*
X144502256Y-107291263D01*
X144482852Y-107475880D01*
X144482419Y-107480000D01*
X144482852Y-107484120D01*
X144502035Y-107666628D01*
X144502689Y-107672855D01*
X144562613Y-107857281D01*
X144659571Y-108025218D01*
X144662340Y-108028293D01*
X144786555Y-108166249D01*
X144786558Y-108166252D01*
X144789327Y-108169327D01*
X144946209Y-108283309D01*
X144949993Y-108284994D01*
X144949997Y-108284996D01*
X145119579Y-108360498D01*
X145119581Y-108360499D01*
X145123362Y-108362182D01*
X145127408Y-108363042D01*
X145127411Y-108363043D01*
X145308998Y-108401641D01*
X145309002Y-108401641D01*
X145313041Y-108402500D01*
X145506959Y-108402500D01*
X145510998Y-108401641D01*
X145511002Y-108401641D01*
X145692589Y-108363043D01*
X145692592Y-108363042D01*
X145696638Y-108362182D01*
X145700419Y-108360499D01*
X145700421Y-108360498D01*
X145870003Y-108284996D01*
X145870007Y-108284994D01*
X145873791Y-108283309D01*
X146030673Y-108169327D01*
X146033442Y-108166252D01*
X146033445Y-108166249D01*
X146157660Y-108028293D01*
X146160429Y-108025218D01*
X146257387Y-107857281D01*
X146317311Y-107672855D01*
X146317966Y-107666628D01*
X146337148Y-107484120D01*
X146337581Y-107480000D01*
X146337148Y-107475880D01*
X146317744Y-107291263D01*
X146317744Y-107291261D01*
X146317311Y-107287145D01*
X146257387Y-107102719D01*
X146160429Y-106934782D01*
X146093334Y-106860265D01*
X146033445Y-106793751D01*
X146033442Y-106793748D01*
X146030673Y-106790673D01*
X145873791Y-106676691D01*
X145870007Y-106675006D01*
X145870003Y-106675004D01*
X145822085Y-106653670D01*
X145783212Y-106616131D01*
X145777564Y-106562388D01*
X145807782Y-106517588D01*
X145854217Y-106502500D01*
X145896959Y-106502500D01*
X145900998Y-106501641D01*
X145901002Y-106501641D01*
X146082589Y-106463043D01*
X146082592Y-106463042D01*
X146086638Y-106462182D01*
X146090419Y-106460499D01*
X146090421Y-106460498D01*
X146260003Y-106384996D01*
X146260007Y-106384994D01*
X146263791Y-106383309D01*
X146420673Y-106269327D01*
X146423442Y-106266252D01*
X146423445Y-106266249D01*
X146547660Y-106128293D01*
X146550429Y-106125218D01*
X146647387Y-105957281D01*
X146707311Y-105772855D01*
X146709431Y-105752690D01*
X146727148Y-105584120D01*
X146727581Y-105580000D01*
X146707311Y-105387145D01*
X146647387Y-105202719D01*
X146648397Y-105202391D01*
X146644935Y-105152826D01*
X146665012Y-105118746D01*
X148085119Y-103698639D01*
X148134095Y-103675801D01*
X148140980Y-103675500D01*
X152019020Y-103675500D01*
X152069800Y-103693982D01*
X152074881Y-103698639D01*
X154361361Y-105985119D01*
X154384199Y-106034095D01*
X154384500Y-106040980D01*
X154384500Y-106052891D01*
X154366018Y-106103671D01*
X154319218Y-106130691D01*
X154266000Y-106121307D01*
X154257736Y-106115817D01*
X154196823Y-106069581D01*
X154187530Y-106064345D01*
X154057148Y-106012723D01*
X154047389Y-106010244D01*
X153965094Y-106000286D01*
X153960352Y-106000000D01*
X153758930Y-106000000D01*
X153748259Y-106003884D01*
X153745000Y-106009528D01*
X153745000Y-108686070D01*
X153748884Y-108696741D01*
X153754528Y-108700000D01*
X153960352Y-108700000D01*
X153965094Y-108699714D01*
X154047389Y-108689756D01*
X154057148Y-108687277D01*
X154187530Y-108635655D01*
X154196823Y-108630419D01*
X154257736Y-108584183D01*
X154309359Y-108568203D01*
X154359176Y-108589144D01*
X154383877Y-108637207D01*
X154384500Y-108647109D01*
X154384500Y-109499020D01*
X154366018Y-109549800D01*
X154361361Y-109554881D01*
X152599881Y-111316361D01*
X152550905Y-111339199D01*
X152544020Y-111339500D01*
X152066145Y-111339501D01*
X152017694Y-111339501D01*
X152014632Y-111339986D01*
X152014631Y-111339986D01*
X151927703Y-111353753D01*
X151927702Y-111353753D01*
X151921567Y-111354725D01*
X151805706Y-111413759D01*
X151713759Y-111505706D01*
X151654725Y-111621567D01*
X151653753Y-111627706D01*
X151653752Y-111627708D01*
X151650809Y-111646290D01*
X151639500Y-111717693D01*
X151639501Y-112782306D01*
X151654725Y-112878433D01*
X151657546Y-112883969D01*
X151668330Y-112905135D01*
X151674915Y-112958772D01*
X151645483Y-113004093D01*
X151597940Y-113020000D01*
X150522060Y-113020000D01*
X150471280Y-113001518D01*
X150444260Y-112954718D01*
X150451670Y-112905135D01*
X150462453Y-112883971D01*
X150462454Y-112883969D01*
X150465275Y-112878433D01*
X150480500Y-112782307D01*
X150480499Y-112025981D01*
X150498981Y-111975201D01*
X150503638Y-111970120D01*
X151055476Y-111418282D01*
X151059071Y-111415178D01*
X151063171Y-111413174D01*
X151095331Y-111378505D01*
X151097388Y-111376370D01*
X151110654Y-111363104D01*
X151112716Y-111360098D01*
X151114010Y-111358541D01*
X151116852Y-111355305D01*
X151130540Y-111340549D01*
X151135502Y-111335200D01*
X151140174Y-111323490D01*
X151148406Y-111308073D01*
X151151415Y-111303687D01*
X151151417Y-111303683D01*
X151155541Y-111297671D01*
X151161640Y-111271972D01*
X151165129Y-111260941D01*
X151172846Y-111241598D01*
X151172846Y-111241597D01*
X151174914Y-111236414D01*
X151175500Y-111230437D01*
X151175500Y-111222813D01*
X151177635Y-111204572D01*
X151178414Y-111201289D01*
X151178414Y-111201288D01*
X151180099Y-111194188D01*
X151176222Y-111165702D01*
X151175500Y-111155048D01*
X151175500Y-109271481D01*
X151175848Y-109266747D01*
X151177330Y-109262429D01*
X151175556Y-109215186D01*
X151175500Y-109212222D01*
X151175500Y-109193448D01*
X151174834Y-109189874D01*
X151174647Y-109187843D01*
X151174368Y-109183545D01*
X151173613Y-109163434D01*
X151173613Y-109163432D01*
X151173339Y-109156147D01*
X151168359Y-109144554D01*
X151163282Y-109127846D01*
X151160972Y-109115441D01*
X151147117Y-109092964D01*
X151141782Y-109082694D01*
X151131356Y-109058426D01*
X151127544Y-109053786D01*
X151122152Y-109048394D01*
X151110763Y-109033986D01*
X151108993Y-109031114D01*
X151108990Y-109031111D01*
X151105163Y-109024902D01*
X151082279Y-109007500D01*
X151074235Y-109000477D01*
X150638282Y-108564524D01*
X150635178Y-108560929D01*
X150633174Y-108556829D01*
X150598505Y-108524669D01*
X150596370Y-108522612D01*
X150583104Y-108509346D01*
X150580098Y-108507284D01*
X150578541Y-108505990D01*
X150575305Y-108503148D01*
X150560549Y-108489460D01*
X150555200Y-108484498D01*
X150543487Y-108479825D01*
X150528075Y-108471596D01*
X150517672Y-108464459D01*
X150491973Y-108458361D01*
X150480942Y-108454872D01*
X150456414Y-108445086D01*
X150450437Y-108444500D01*
X150442807Y-108444500D01*
X150424568Y-108442365D01*
X150414188Y-108439902D01*
X150406958Y-108440886D01*
X150406957Y-108440886D01*
X150385709Y-108443778D01*
X150375055Y-108444500D01*
X149028762Y-108444500D01*
X148977982Y-108426018D01*
X148950962Y-108379218D01*
X148960346Y-108326000D01*
X148980124Y-108303248D01*
X149000780Y-108287110D01*
X149006797Y-108277479D01*
X149006159Y-108272936D01*
X148399851Y-107666628D01*
X148389557Y-107661828D01*
X148383263Y-107663514D01*
X147777416Y-108269361D01*
X147772616Y-108279655D01*
X147773954Y-108284650D01*
X147806698Y-108312518D01*
X147813017Y-108316910D01*
X147979519Y-108409965D01*
X147986553Y-108413039D01*
X148167962Y-108471981D01*
X148175475Y-108473633D01*
X148364861Y-108496216D01*
X148372562Y-108496377D01*
X148449213Y-108490479D01*
X148501262Y-108505011D01*
X148531792Y-108549599D01*
X148526519Y-108603381D01*
X148511135Y-108625107D01*
X147847733Y-109288509D01*
X147798757Y-109311347D01*
X147759743Y-109304819D01*
X147676638Y-109267818D01*
X147672592Y-109266958D01*
X147672589Y-109266957D01*
X147491002Y-109228359D01*
X147490998Y-109228359D01*
X147486959Y-109227500D01*
X147293041Y-109227500D01*
X147289002Y-109228359D01*
X147288998Y-109228359D01*
X147107411Y-109266957D01*
X147107408Y-109266958D01*
X147103362Y-109267818D01*
X147099581Y-109269501D01*
X147099579Y-109269502D01*
X146929998Y-109345004D01*
X146929994Y-109345006D01*
X146926210Y-109346691D01*
X146922856Y-109349128D01*
X146922854Y-109349129D01*
X146829238Y-109417145D01*
X146769327Y-109460673D01*
X146766558Y-109463748D01*
X146766555Y-109463751D01*
X146705336Y-109531742D01*
X146639571Y-109604782D01*
X146542613Y-109772719D01*
X146482689Y-109957145D01*
X146462419Y-110150000D01*
X146462852Y-110154120D01*
X146481807Y-110334459D01*
X146482689Y-110342855D01*
X146542613Y-110527281D01*
X146639571Y-110695218D01*
X146642340Y-110698293D01*
X146766555Y-110836249D01*
X146766558Y-110836252D01*
X146769327Y-110839327D01*
X146926209Y-110953309D01*
X146929993Y-110954994D01*
X146929997Y-110954996D01*
X147099579Y-111030498D01*
X147099581Y-111030499D01*
X147103362Y-111032182D01*
X147107408Y-111033042D01*
X147107411Y-111033043D01*
X147288998Y-111071641D01*
X147289002Y-111071641D01*
X147293041Y-111072500D01*
X147486959Y-111072500D01*
X147490998Y-111071641D01*
X147491002Y-111071641D01*
X147672589Y-111033043D01*
X147672592Y-111033042D01*
X147676638Y-111032182D01*
X147680419Y-111030499D01*
X147680421Y-111030498D01*
X147850003Y-110954996D01*
X147850007Y-110954994D01*
X147853791Y-110953309D01*
X148010673Y-110839327D01*
X148013442Y-110836252D01*
X148013445Y-110836249D01*
X148137660Y-110698293D01*
X148140429Y-110695218D01*
X148237387Y-110527281D01*
X148297311Y-110342855D01*
X148298194Y-110334459D01*
X148311433Y-110208494D01*
X148335122Y-110159924D01*
X148355867Y-110150688D01*
X148343565Y-110147160D01*
X148313347Y-110102360D01*
X148311433Y-110091506D01*
X148297744Y-109961263D01*
X148297744Y-109961261D01*
X148297311Y-109957145D01*
X148237387Y-109772719D01*
X148238397Y-109772391D01*
X148234935Y-109722826D01*
X148255012Y-109688746D01*
X148905119Y-109038639D01*
X148954095Y-109015801D01*
X148960980Y-109015500D01*
X150249020Y-109015500D01*
X150299800Y-109033982D01*
X150304881Y-109038639D01*
X150581361Y-109315119D01*
X150604199Y-109364095D01*
X150604500Y-109370980D01*
X150604500Y-111029020D01*
X150586018Y-111079800D01*
X150581361Y-111084881D01*
X150313933Y-111352309D01*
X150264957Y-111375147D01*
X150222208Y-111366838D01*
X150203974Y-111357548D01*
X150203973Y-111357548D01*
X150198433Y-111354725D01*
X150192294Y-111353753D01*
X150192292Y-111353752D01*
X150150975Y-111347208D01*
X150102307Y-111339500D01*
X149820137Y-111339500D01*
X149537694Y-111339501D01*
X149534632Y-111339986D01*
X149534631Y-111339986D01*
X149447703Y-111353753D01*
X149447702Y-111353753D01*
X149441567Y-111354725D01*
X149325706Y-111413759D01*
X149233759Y-111505706D01*
X149174725Y-111621567D01*
X149173753Y-111627706D01*
X149173752Y-111627708D01*
X149170809Y-111646290D01*
X149159500Y-111717693D01*
X149159501Y-112782306D01*
X149174725Y-112878433D01*
X149177546Y-112883969D01*
X149188330Y-112905135D01*
X149194915Y-112958772D01*
X149165483Y-113004093D01*
X149117940Y-113020000D01*
X148572060Y-113020000D01*
X148521280Y-113001518D01*
X148494260Y-112954718D01*
X148501670Y-112905135D01*
X148512453Y-112883971D01*
X148512454Y-112883969D01*
X148515275Y-112878433D01*
X148530500Y-112782307D01*
X148530499Y-111717694D01*
X148528307Y-111703853D01*
X148516247Y-111627703D01*
X148516247Y-111627702D01*
X148515275Y-111621567D01*
X148476159Y-111544797D01*
X148469574Y-111491161D01*
X148490688Y-111453071D01*
X148932267Y-111011492D01*
X148981243Y-110988654D01*
X149020260Y-110995183D01*
X149099579Y-111030498D01*
X149099581Y-111030499D01*
X149103362Y-111032182D01*
X149107408Y-111033042D01*
X149107411Y-111033043D01*
X149288998Y-111071641D01*
X149289002Y-111071641D01*
X149293041Y-111072500D01*
X149486959Y-111072500D01*
X149490998Y-111071641D01*
X149491002Y-111071641D01*
X149672589Y-111033043D01*
X149672592Y-111033042D01*
X149676638Y-111032182D01*
X149680419Y-111030499D01*
X149680421Y-111030498D01*
X149850003Y-110954996D01*
X149850007Y-110954994D01*
X149853791Y-110953309D01*
X150010673Y-110839327D01*
X150013442Y-110836252D01*
X150013445Y-110836249D01*
X150137660Y-110698293D01*
X150140429Y-110695218D01*
X150237387Y-110527281D01*
X150297311Y-110342855D01*
X150298194Y-110334459D01*
X150317148Y-110154120D01*
X150317581Y-110150000D01*
X150297311Y-109957145D01*
X150237387Y-109772719D01*
X150140429Y-109604782D01*
X150074664Y-109531742D01*
X150013445Y-109463751D01*
X150013442Y-109463748D01*
X150010673Y-109460673D01*
X149853791Y-109346691D01*
X149850007Y-109345006D01*
X149850003Y-109345004D01*
X149680421Y-109269502D01*
X149680419Y-109269501D01*
X149676638Y-109267818D01*
X149672592Y-109266958D01*
X149672589Y-109266957D01*
X149491002Y-109228359D01*
X149490998Y-109228359D01*
X149486959Y-109227500D01*
X149293041Y-109227500D01*
X149289002Y-109228359D01*
X149288998Y-109228359D01*
X149107411Y-109266957D01*
X149107408Y-109266958D01*
X149103362Y-109267818D01*
X149099581Y-109269501D01*
X149099579Y-109269502D01*
X148929998Y-109345004D01*
X148929994Y-109345006D01*
X148926210Y-109346691D01*
X148922856Y-109349128D01*
X148922854Y-109349129D01*
X148829238Y-109417145D01*
X148769327Y-109460673D01*
X148766558Y-109463748D01*
X148766555Y-109463751D01*
X148705336Y-109531742D01*
X148639571Y-109604782D01*
X148542613Y-109772719D01*
X148482689Y-109957145D01*
X148482256Y-109961261D01*
X148482256Y-109961263D01*
X148468567Y-110091506D01*
X148444878Y-110140076D01*
X148424133Y-110149312D01*
X148436435Y-110152840D01*
X148466653Y-110197640D01*
X148468567Y-110208494D01*
X148481807Y-110334459D01*
X148482689Y-110342855D01*
X148508362Y-110421869D01*
X148542613Y-110527281D01*
X148541603Y-110527609D01*
X148545065Y-110577174D01*
X148524988Y-110611254D01*
X147819880Y-111316362D01*
X147770904Y-111339200D01*
X147764019Y-111339501D01*
X147587694Y-111339501D01*
X147584632Y-111339986D01*
X147584631Y-111339986D01*
X147497703Y-111353753D01*
X147497702Y-111353753D01*
X147491567Y-111354725D01*
X147375706Y-111413759D01*
X147283759Y-111505706D01*
X147224725Y-111621567D01*
X147223753Y-111627706D01*
X147223752Y-111627708D01*
X147220809Y-111646290D01*
X147209500Y-111717693D01*
X147209501Y-112782306D01*
X147224725Y-112878433D01*
X147227546Y-112883969D01*
X147238330Y-112905135D01*
X147244915Y-112958772D01*
X147215483Y-113004093D01*
X147167940Y-113020000D01*
X146622060Y-113020000D01*
X146571280Y-113001518D01*
X146544260Y-112954718D01*
X146551670Y-112905135D01*
X146562453Y-112883971D01*
X146562454Y-112883969D01*
X146565275Y-112878433D01*
X146580500Y-112782307D01*
X146580499Y-111717694D01*
X146578307Y-111703853D01*
X146566247Y-111627703D01*
X146566247Y-111627702D01*
X146565275Y-111621567D01*
X146506241Y-111505706D01*
X146414294Y-111413759D01*
X146298433Y-111354725D01*
X146292294Y-111353753D01*
X146292292Y-111353752D01*
X146250975Y-111347208D01*
X146202307Y-111339500D01*
X146153899Y-111339500D01*
X145675981Y-111339501D01*
X145625201Y-111321019D01*
X145620120Y-111316362D01*
X144738282Y-110434524D01*
X144735178Y-110430929D01*
X144733174Y-110426829D01*
X144698505Y-110394669D01*
X144696370Y-110392612D01*
X144683104Y-110379346D01*
X144680098Y-110377284D01*
X144678541Y-110375990D01*
X144675305Y-110373148D01*
X144660549Y-110359460D01*
X144655200Y-110354498D01*
X144643487Y-110349825D01*
X144628075Y-110341596D01*
X144617672Y-110334459D01*
X144591973Y-110328361D01*
X144580942Y-110324872D01*
X144556414Y-110315086D01*
X144550437Y-110314500D01*
X144542807Y-110314500D01*
X144524568Y-110312365D01*
X144514188Y-110309902D01*
X144506958Y-110310886D01*
X144506957Y-110310886D01*
X144485709Y-110313778D01*
X144475055Y-110314500D01*
X144206382Y-110314500D01*
X144155602Y-110296018D01*
X144143707Y-110283592D01*
X144082903Y-110204350D01*
X144079754Y-110200246D01*
X144017973Y-110152840D01*
X143966780Y-110113558D01*
X143966778Y-110113557D01*
X143962669Y-110110404D01*
X143957882Y-110108421D01*
X143957880Y-110108420D01*
X143912023Y-110089426D01*
X143826320Y-110053926D01*
X143680000Y-110034663D01*
X143533680Y-110053926D01*
X143447376Y-110089675D01*
X143402121Y-110108420D01*
X143402119Y-110108421D01*
X143397332Y-110110404D01*
X143393223Y-110113557D01*
X143393221Y-110113558D01*
X143340359Y-110154120D01*
X143280246Y-110200246D01*
X143277097Y-110204350D01*
X143206759Y-110296018D01*
X143190404Y-110317332D01*
X143188421Y-110322119D01*
X143188420Y-110322121D01*
X143179832Y-110342855D01*
X143133926Y-110453680D01*
X143114663Y-110600000D01*
X143133926Y-110746320D01*
X143190404Y-110882668D01*
X143193557Y-110886777D01*
X143193558Y-110886779D01*
X143210332Y-110908639D01*
X143280246Y-110999754D01*
X143284350Y-111002903D01*
X143393220Y-111086442D01*
X143393222Y-111086443D01*
X143397331Y-111089596D01*
X143402118Y-111091579D01*
X143402120Y-111091580D01*
X143447977Y-111110574D01*
X143533680Y-111146074D01*
X143680000Y-111165337D01*
X143826320Y-111146074D01*
X143912023Y-111110574D01*
X143957880Y-111091580D01*
X143957882Y-111091579D01*
X143962669Y-111089596D01*
X143966778Y-111086443D01*
X143966780Y-111086442D01*
X144075650Y-111002903D01*
X144079754Y-110999754D01*
X144143707Y-110916408D01*
X144189283Y-110887373D01*
X144206382Y-110885500D01*
X144349020Y-110885500D01*
X144399800Y-110903982D01*
X144404881Y-110908639D01*
X144750227Y-111253985D01*
X144773065Y-111302961D01*
X144759079Y-111355159D01*
X144714813Y-111386154D01*
X144658501Y-111380235D01*
X144613976Y-111357548D01*
X144613969Y-111357546D01*
X144608433Y-111354725D01*
X144602294Y-111353753D01*
X144602292Y-111353752D01*
X144560975Y-111347208D01*
X144512307Y-111339500D01*
X144230137Y-111339500D01*
X143947694Y-111339501D01*
X143944632Y-111339986D01*
X143944631Y-111339986D01*
X143857703Y-111353753D01*
X143857702Y-111353753D01*
X143851567Y-111354725D01*
X143735706Y-111413759D01*
X143643759Y-111505706D01*
X143584725Y-111621567D01*
X143583753Y-111627706D01*
X143583752Y-111627708D01*
X143580809Y-111646290D01*
X143569500Y-111717693D01*
X143569500Y-111885500D01*
X143551018Y-111936280D01*
X143504218Y-111963300D01*
X143490500Y-111964500D01*
X143100980Y-111964500D01*
X143050200Y-111946018D01*
X143045119Y-111941361D01*
X142648639Y-111544881D01*
X142625801Y-111495905D01*
X142625500Y-111489020D01*
X142625500Y-109810980D01*
X142643982Y-109760200D01*
X142648639Y-109755119D01*
X142945119Y-109458639D01*
X142994095Y-109435801D01*
X143000980Y-109435500D01*
X145838526Y-109435500D01*
X145843255Y-109435847D01*
X145847571Y-109437329D01*
X145894799Y-109435556D01*
X145897762Y-109435500D01*
X145916552Y-109435500D01*
X145920129Y-109434834D01*
X145922172Y-109434645D01*
X145926469Y-109434367D01*
X145946563Y-109433613D01*
X145946565Y-109433613D01*
X145953853Y-109433339D01*
X145965442Y-109428360D01*
X145982155Y-109423283D01*
X145987384Y-109422309D01*
X145987388Y-109422308D01*
X145994559Y-109420972D01*
X146017045Y-109407112D01*
X146027310Y-109401780D01*
X146029094Y-109401014D01*
X146051574Y-109391355D01*
X146056215Y-109387543D01*
X146061606Y-109382152D01*
X146076014Y-109370763D01*
X146078886Y-109368993D01*
X146078889Y-109368990D01*
X146085098Y-109365163D01*
X146102500Y-109342278D01*
X146109523Y-109334235D01*
X147085476Y-108358282D01*
X147089071Y-108355178D01*
X147093171Y-108353174D01*
X147125331Y-108318505D01*
X147127388Y-108316370D01*
X147140654Y-108303104D01*
X147142716Y-108300098D01*
X147144010Y-108298541D01*
X147146852Y-108295305D01*
X147160540Y-108280549D01*
X147165502Y-108275200D01*
X147170175Y-108263487D01*
X147178404Y-108248075D01*
X147185541Y-108237672D01*
X147191639Y-108211973D01*
X147195129Y-108200938D01*
X147204914Y-108176414D01*
X147205500Y-108170437D01*
X147205500Y-108162807D01*
X147207635Y-108144566D01*
X147208413Y-108141287D01*
X147210098Y-108134188D01*
X147206222Y-108105709D01*
X147205500Y-108095055D01*
X147205500Y-107469648D01*
X147373525Y-107469648D01*
X147389486Y-107659724D01*
X147390872Y-107667278D01*
X147443449Y-107850635D01*
X147446277Y-107857777D01*
X147533467Y-108027430D01*
X147537626Y-108033884D01*
X147582789Y-108090866D01*
X147592460Y-108096815D01*
X147597092Y-108096131D01*
X148203372Y-107489851D01*
X148207759Y-107480443D01*
X148571828Y-107480443D01*
X148573514Y-107486737D01*
X149179596Y-108092819D01*
X149189890Y-108097619D01*
X149194985Y-108096254D01*
X149218427Y-108069097D01*
X149222860Y-108062813D01*
X149317074Y-107896968D01*
X149320202Y-107889942D01*
X149380407Y-107708956D01*
X149382110Y-107701463D01*
X149406224Y-107510588D01*
X149406532Y-107506178D01*
X149406866Y-107482214D01*
X149406681Y-107477800D01*
X149387907Y-107286328D01*
X149386413Y-107278784D01*
X149331285Y-107096191D01*
X149328355Y-107089080D01*
X149238806Y-106920664D01*
X149234556Y-106914268D01*
X149197519Y-106868857D01*
X149187765Y-106863042D01*
X149182956Y-106863821D01*
X148576628Y-107470149D01*
X148571828Y-107480443D01*
X148207759Y-107480443D01*
X148208172Y-107479557D01*
X148206486Y-107473263D01*
X147600839Y-106867616D01*
X147590545Y-106862816D01*
X147585649Y-106864128D01*
X147553431Y-106902524D01*
X147549081Y-106908877D01*
X147457196Y-107076015D01*
X147454165Y-107083087D01*
X147396493Y-107264894D01*
X147394895Y-107272410D01*
X147373632Y-107461968D01*
X147373525Y-107469648D01*
X147205500Y-107469648D01*
X147205500Y-106970980D01*
X147223982Y-106920200D01*
X147228639Y-106915119D01*
X147545119Y-106598639D01*
X147594095Y-106575801D01*
X147600980Y-106575500D01*
X147697648Y-106575500D01*
X147748428Y-106593982D01*
X147775448Y-106640782D01*
X147770656Y-106666384D01*
X147773860Y-106687083D01*
X148380149Y-107293372D01*
X148390443Y-107298172D01*
X148396737Y-107296486D01*
X149002218Y-106691005D01*
X149007018Y-106680712D01*
X149005473Y-106674945D01*
X149010184Y-106621112D01*
X149048397Y-106582901D01*
X149081782Y-106575500D01*
X149199020Y-106575500D01*
X149249800Y-106593982D01*
X149254881Y-106598639D01*
X150301718Y-107645476D01*
X150304822Y-107649071D01*
X150306826Y-107653171D01*
X150312173Y-107658131D01*
X150341495Y-107685331D01*
X150343630Y-107687388D01*
X150356896Y-107700654D01*
X150359902Y-107702716D01*
X150361459Y-107704010D01*
X150364694Y-107706851D01*
X150384800Y-107725502D01*
X150391576Y-107728205D01*
X150391577Y-107728206D01*
X150396517Y-107730177D01*
X150411926Y-107738405D01*
X150416310Y-107741412D01*
X150422328Y-107745540D01*
X150437638Y-107749173D01*
X150482777Y-107778880D01*
X150494529Y-107801625D01*
X150512613Y-107857281D01*
X150609571Y-108025218D01*
X150612340Y-108028293D01*
X150736555Y-108166249D01*
X150736558Y-108166252D01*
X150739327Y-108169327D01*
X150896209Y-108283309D01*
X150899993Y-108284994D01*
X150899997Y-108284996D01*
X151069579Y-108360498D01*
X151069581Y-108360499D01*
X151073362Y-108362182D01*
X151077408Y-108363042D01*
X151077411Y-108363043D01*
X151258998Y-108401641D01*
X151259002Y-108401641D01*
X151263041Y-108402500D01*
X151456959Y-108402500D01*
X151460998Y-108401641D01*
X151461002Y-108401641D01*
X151642589Y-108363043D01*
X151642592Y-108363042D01*
X151646638Y-108362182D01*
X151650419Y-108360499D01*
X151650421Y-108360498D01*
X151820003Y-108284996D01*
X151820007Y-108284994D01*
X151823791Y-108283309D01*
X151951735Y-108190352D01*
X152770000Y-108190352D01*
X152770286Y-108195094D01*
X152780244Y-108277389D01*
X152782723Y-108287148D01*
X152834345Y-108417530D01*
X152839581Y-108426823D01*
X152924184Y-108538282D01*
X152931718Y-108545816D01*
X153043177Y-108630419D01*
X153052470Y-108635655D01*
X153182852Y-108687277D01*
X153192611Y-108689756D01*
X153274906Y-108699714D01*
X153279648Y-108700000D01*
X153481070Y-108700000D01*
X153491741Y-108696116D01*
X153495000Y-108690472D01*
X153495000Y-107488930D01*
X153491116Y-107478259D01*
X153485472Y-107475000D01*
X152783930Y-107475000D01*
X152773259Y-107478884D01*
X152770000Y-107484528D01*
X152770000Y-108190352D01*
X151951735Y-108190352D01*
X151980673Y-108169327D01*
X151983442Y-108166252D01*
X151983445Y-108166249D01*
X152107660Y-108028293D01*
X152110429Y-108025218D01*
X152207387Y-107857281D01*
X152267311Y-107672855D01*
X152267966Y-107666628D01*
X152287148Y-107484120D01*
X152287581Y-107480000D01*
X152287148Y-107475880D01*
X152267744Y-107291263D01*
X152267744Y-107291261D01*
X152267311Y-107287145D01*
X152242593Y-107211070D01*
X152770000Y-107211070D01*
X152773884Y-107221741D01*
X152779528Y-107225000D01*
X153481070Y-107225000D01*
X153491741Y-107221116D01*
X153495000Y-107215472D01*
X153495000Y-106013930D01*
X153491116Y-106003259D01*
X153485472Y-106000000D01*
X153279648Y-106000000D01*
X153274906Y-106000286D01*
X153192611Y-106010244D01*
X153182852Y-106012723D01*
X153052470Y-106064345D01*
X153043177Y-106069581D01*
X152931718Y-106154184D01*
X152924184Y-106161718D01*
X152839581Y-106273177D01*
X152834345Y-106282470D01*
X152782723Y-106412852D01*
X152780244Y-106422611D01*
X152770286Y-106504906D01*
X152770000Y-106509648D01*
X152770000Y-107211070D01*
X152242593Y-107211070D01*
X152207387Y-107102719D01*
X152110429Y-106934782D01*
X152043334Y-106860265D01*
X151983445Y-106793751D01*
X151983442Y-106793748D01*
X151980673Y-106790673D01*
X151823791Y-106676691D01*
X151820007Y-106675006D01*
X151820003Y-106675004D01*
X151650421Y-106599502D01*
X151650419Y-106599501D01*
X151646638Y-106597818D01*
X151642592Y-106596958D01*
X151642589Y-106596957D01*
X151461002Y-106558359D01*
X151460998Y-106558359D01*
X151456959Y-106557500D01*
X151414217Y-106557500D01*
X151363437Y-106539018D01*
X151336417Y-106492218D01*
X151345801Y-106439000D01*
X151382085Y-106406330D01*
X151430003Y-106384996D01*
X151430007Y-106384994D01*
X151433791Y-106383309D01*
X151590673Y-106269327D01*
X151593442Y-106266252D01*
X151593445Y-106266249D01*
X151717660Y-106128293D01*
X151720429Y-106125218D01*
X151817387Y-105957281D01*
X151877311Y-105772855D01*
X151879431Y-105752690D01*
X151897148Y-105584120D01*
X151897581Y-105580000D01*
X151877311Y-105387145D01*
X151817387Y-105202719D01*
X151720429Y-105034782D01*
X151677969Y-104987625D01*
X151593445Y-104893751D01*
X151593442Y-104893748D01*
X151590673Y-104890673D01*
X151433791Y-104776691D01*
X151430007Y-104775006D01*
X151430003Y-104775004D01*
X151260421Y-104699502D01*
X151260419Y-104699501D01*
X151256638Y-104697818D01*
X151252592Y-104696958D01*
X151252589Y-104696957D01*
X151071002Y-104658359D01*
X151070998Y-104658359D01*
X151066959Y-104657500D01*
X150873041Y-104657500D01*
X150869002Y-104658359D01*
X150868998Y-104658359D01*
X150687411Y-104696957D01*
X150687408Y-104696958D01*
X150683362Y-104697818D01*
X150679581Y-104699501D01*
X150679579Y-104699502D01*
X150509998Y-104775004D01*
X150509994Y-104775006D01*
X150506210Y-104776691D01*
X150349327Y-104890673D01*
X150346558Y-104893748D01*
X150346555Y-104893751D01*
X150262031Y-104987625D01*
X150219571Y-105034782D01*
X150122613Y-105202719D01*
X150062689Y-105387145D01*
X150042419Y-105580000D01*
X150042852Y-105584120D01*
X150060570Y-105752690D01*
X150062689Y-105772855D01*
X150122613Y-105957281D01*
X150219571Y-106125218D01*
X150222340Y-106128293D01*
X150346555Y-106266249D01*
X150346558Y-106266252D01*
X150349327Y-106269327D01*
X150506209Y-106383309D01*
X150509993Y-106384994D01*
X150509997Y-106384996D01*
X150679579Y-106460498D01*
X150679581Y-106460499D01*
X150683362Y-106462182D01*
X150687408Y-106463042D01*
X150687411Y-106463043D01*
X150868998Y-106501641D01*
X150869002Y-106501641D01*
X150873041Y-106502500D01*
X150915784Y-106502500D01*
X150966564Y-106520982D01*
X150993584Y-106567782D01*
X150984200Y-106621000D01*
X150947916Y-106653670D01*
X150899998Y-106675004D01*
X150899994Y-106675006D01*
X150896210Y-106676691D01*
X150892856Y-106679128D01*
X150892854Y-106679129D01*
X150808384Y-106740500D01*
X150739327Y-106790673D01*
X150736558Y-106793748D01*
X150736555Y-106793751D01*
X150676666Y-106860265D01*
X150609571Y-106934782D01*
X150583805Y-106979411D01*
X150542411Y-107014145D01*
X150488372Y-107014146D01*
X150459529Y-106995771D01*
X149588282Y-106124524D01*
X149585178Y-106120929D01*
X149583174Y-106116829D01*
X149548505Y-106084669D01*
X149546370Y-106082612D01*
X149533104Y-106069346D01*
X149530098Y-106067284D01*
X149528541Y-106065990D01*
X149525305Y-106063148D01*
X149505200Y-106044498D01*
X149493487Y-106039825D01*
X149478075Y-106031596D01*
X149467672Y-106024459D01*
X149441973Y-106018361D01*
X149430942Y-106014872D01*
X149406414Y-106005086D01*
X149400437Y-106004500D01*
X149392807Y-106004500D01*
X149374568Y-106002365D01*
X149364188Y-105999902D01*
X149356958Y-106000886D01*
X149356957Y-106000886D01*
X149335709Y-106003778D01*
X149325055Y-106004500D01*
X149012705Y-106004500D01*
X148961925Y-105986018D01*
X148934905Y-105939218D01*
X148944289Y-105886000D01*
X148966270Y-105861588D01*
X149007320Y-105831763D01*
X149010673Y-105829327D01*
X149013442Y-105826252D01*
X149013445Y-105826249D01*
X149126116Y-105701114D01*
X149140429Y-105685218D01*
X149237387Y-105517281D01*
X149297311Y-105332855D01*
X149317581Y-105140000D01*
X149297311Y-104947145D01*
X149237387Y-104762719D01*
X149140429Y-104594782D01*
X149097969Y-104547625D01*
X149013445Y-104453751D01*
X149013442Y-104453748D01*
X149010673Y-104450673D01*
X148853791Y-104336691D01*
X148850007Y-104335006D01*
X148850003Y-104335004D01*
X148680421Y-104259502D01*
X148680419Y-104259501D01*
X148676638Y-104257818D01*
X148672592Y-104256958D01*
X148672589Y-104256957D01*
X148491002Y-104218359D01*
X148490998Y-104218359D01*
X148486959Y-104217500D01*
X148293041Y-104217500D01*
X148289002Y-104218359D01*
X148288998Y-104218359D01*
X148107411Y-104256957D01*
X148107408Y-104256958D01*
X148103362Y-104257818D01*
X148099581Y-104259501D01*
X148099579Y-104259502D01*
X147929998Y-104335004D01*
X147929994Y-104335006D01*
X147926210Y-104336691D01*
X147769327Y-104450673D01*
X147766558Y-104453748D01*
X147766555Y-104453751D01*
X147682031Y-104547625D01*
X147639571Y-104594782D01*
X147542613Y-104762719D01*
X147482689Y-104947145D01*
X147462419Y-105140000D01*
X147482689Y-105332855D01*
X147542613Y-105517281D01*
X147639571Y-105685218D01*
X147653884Y-105701114D01*
X147766555Y-105826249D01*
X147766558Y-105826252D01*
X147769327Y-105829327D01*
X147772680Y-105831763D01*
X147813730Y-105861588D01*
X147843948Y-105906389D01*
X147838300Y-105960132D01*
X147799427Y-105997670D01*
X147767295Y-106004500D01*
X147501473Y-106004500D01*
X147496744Y-106004153D01*
X147492428Y-106002671D01*
X147445201Y-106004444D01*
X147442237Y-106004500D01*
X147423448Y-106004500D01*
X147419871Y-106005166D01*
X147417828Y-106005355D01*
X147413531Y-106005633D01*
X147393437Y-106006387D01*
X147393435Y-106006387D01*
X147386147Y-106006661D01*
X147374558Y-106011640D01*
X147357845Y-106016717D01*
X147352616Y-106017691D01*
X147352612Y-106017692D01*
X147345441Y-106019028D01*
X147329935Y-106028586D01*
X147322955Y-106032888D01*
X147312690Y-106038220D01*
X147288426Y-106048645D01*
X147283785Y-106052457D01*
X147278394Y-106057848D01*
X147263986Y-106069237D01*
X147261114Y-106071007D01*
X147261111Y-106071010D01*
X147254902Y-106074837D01*
X147250486Y-106080645D01*
X147237500Y-106097722D01*
X147230477Y-106105765D01*
X146754524Y-106581718D01*
X146750929Y-106584822D01*
X146746829Y-106586826D01*
X146735871Y-106598639D01*
X146714669Y-106621495D01*
X146712612Y-106623630D01*
X146699346Y-106636896D01*
X146697284Y-106639902D01*
X146695990Y-106641459D01*
X146693149Y-106644694D01*
X146674498Y-106664800D01*
X146671795Y-106671576D01*
X146669825Y-106676513D01*
X146661596Y-106691925D01*
X146654459Y-106702328D01*
X146648390Y-106727903D01*
X146648361Y-106728027D01*
X146644872Y-106739058D01*
X146635086Y-106763586D01*
X146634500Y-106769563D01*
X146634500Y-106777193D01*
X146632365Y-106795432D01*
X146629902Y-106805812D01*
X146630886Y-106813042D01*
X146630886Y-106813043D01*
X146633778Y-106834291D01*
X146634500Y-106844945D01*
X146634500Y-107969020D01*
X146616018Y-108019800D01*
X146611361Y-108024881D01*
X145794881Y-108841361D01*
X145745905Y-108864199D01*
X145739020Y-108864500D01*
X142901474Y-108864500D01*
X142896745Y-108864153D01*
X142892429Y-108862671D01*
X142845202Y-108864444D01*
X142842238Y-108864500D01*
X142823448Y-108864500D01*
X142819871Y-108865166D01*
X142817828Y-108865355D01*
X142813531Y-108865633D01*
X142793437Y-108866387D01*
X142793435Y-108866387D01*
X142786147Y-108866661D01*
X142774558Y-108871640D01*
X142757845Y-108876717D01*
X142752616Y-108877691D01*
X142752612Y-108877692D01*
X142745441Y-108879028D01*
X142726354Y-108890793D01*
X142722955Y-108892888D01*
X142712690Y-108898220D01*
X142688426Y-108908645D01*
X142683785Y-108912457D01*
X142678394Y-108917848D01*
X142663986Y-108929237D01*
X142661114Y-108931007D01*
X142661111Y-108931010D01*
X142654902Y-108934837D01*
X142650486Y-108940645D01*
X142637500Y-108957722D01*
X142630477Y-108965765D01*
X142174524Y-109421718D01*
X142170929Y-109424822D01*
X142166829Y-109426826D01*
X142134669Y-109461495D01*
X142132612Y-109463630D01*
X142119346Y-109476896D01*
X142117284Y-109479902D01*
X142115990Y-109481459D01*
X142113149Y-109484694D01*
X142094498Y-109504800D01*
X142091795Y-109511576D01*
X142089825Y-109516513D01*
X142081596Y-109531925D01*
X142074459Y-109542328D01*
X142068390Y-109567903D01*
X142068361Y-109568027D01*
X142064872Y-109579058D01*
X142055086Y-109603586D01*
X142054500Y-109609563D01*
X142054500Y-109617193D01*
X142052365Y-109635432D01*
X142049902Y-109645812D01*
X142050886Y-109653042D01*
X142050886Y-109653043D01*
X142053778Y-109674291D01*
X142054500Y-109684945D01*
X142054500Y-111588526D01*
X142054153Y-111593255D01*
X142052671Y-111597571D01*
X142054444Y-111644798D01*
X142054500Y-111647762D01*
X142054500Y-111666552D01*
X142055166Y-111670129D01*
X142055355Y-111672172D01*
X142055633Y-111676469D01*
X142056661Y-111703853D01*
X142061640Y-111715442D01*
X142066717Y-111732155D01*
X142067691Y-111737384D01*
X142067692Y-111737388D01*
X142069028Y-111744559D01*
X142072855Y-111750767D01*
X142082888Y-111767045D01*
X142088220Y-111777310D01*
X142098645Y-111801574D01*
X142102457Y-111806215D01*
X142107848Y-111811606D01*
X142119237Y-111826014D01*
X142121007Y-111828886D01*
X142121010Y-111828889D01*
X142124837Y-111835098D01*
X142145782Y-111851025D01*
X142147722Y-111852500D01*
X142155765Y-111859523D01*
X142711718Y-112415476D01*
X142714822Y-112419071D01*
X142716826Y-112423171D01*
X142722173Y-112428131D01*
X142751495Y-112455331D01*
X142753630Y-112457388D01*
X142766896Y-112470654D01*
X142769902Y-112472716D01*
X142771459Y-112474010D01*
X142774694Y-112476851D01*
X142794800Y-112495502D01*
X142801576Y-112498205D01*
X142801577Y-112498206D01*
X142806517Y-112500177D01*
X142821926Y-112508405D01*
X142826310Y-112511412D01*
X142832328Y-112515540D01*
X142839424Y-112517224D01*
X142839426Y-112517225D01*
X142858023Y-112521638D01*
X142869055Y-112525127D01*
X142893586Y-112534914D01*
X142899563Y-112535500D01*
X142907192Y-112535500D01*
X142925434Y-112537635D01*
X142935812Y-112540098D01*
X142943042Y-112539114D01*
X142943043Y-112539114D01*
X142964291Y-112536222D01*
X142974945Y-112535500D01*
X143490501Y-112535500D01*
X143541281Y-112553982D01*
X143568301Y-112600782D01*
X143569501Y-112614500D01*
X143569501Y-112782306D01*
X143584725Y-112878433D01*
X143587546Y-112883969D01*
X143598330Y-112905135D01*
X143604915Y-112958772D01*
X143575483Y-113004093D01*
X143527940Y-113020000D01*
X140739000Y-113020000D01*
X140688220Y-113001518D01*
X140661200Y-112954718D01*
X140660000Y-112941000D01*
X140660000Y-108190352D01*
X142300000Y-108190352D01*
X142300286Y-108195094D01*
X142310244Y-108277389D01*
X142312723Y-108287148D01*
X142364345Y-108417530D01*
X142369581Y-108426823D01*
X142454184Y-108538282D01*
X142461718Y-108545816D01*
X142573177Y-108630419D01*
X142582470Y-108635655D01*
X142712852Y-108687277D01*
X142722611Y-108689756D01*
X142804906Y-108699714D01*
X142809648Y-108700000D01*
X143011070Y-108700000D01*
X143021741Y-108696116D01*
X143025000Y-108690472D01*
X143025000Y-108686070D01*
X143275000Y-108686070D01*
X143278884Y-108696741D01*
X143284528Y-108700000D01*
X143490352Y-108700000D01*
X143495094Y-108699714D01*
X143577389Y-108689756D01*
X143587148Y-108687277D01*
X143717530Y-108635655D01*
X143726823Y-108630419D01*
X143838282Y-108545816D01*
X143845816Y-108538282D01*
X143930419Y-108426823D01*
X143935655Y-108417530D01*
X143987277Y-108287148D01*
X143989756Y-108277389D01*
X143999714Y-108195094D01*
X144000000Y-108190352D01*
X144000000Y-107488930D01*
X143996116Y-107478259D01*
X143990472Y-107475000D01*
X143288930Y-107475000D01*
X143278259Y-107478884D01*
X143275000Y-107484528D01*
X143275000Y-108686070D01*
X143025000Y-108686070D01*
X143025000Y-107488930D01*
X143021116Y-107478259D01*
X143015472Y-107475000D01*
X142313930Y-107475000D01*
X142303259Y-107478884D01*
X142300000Y-107484528D01*
X142300000Y-108190352D01*
X140660000Y-108190352D01*
X140660000Y-106989000D01*
X140678482Y-106938220D01*
X140725282Y-106911200D01*
X140739000Y-106910000D01*
X142124954Y-106910000D01*
X142131298Y-106910399D01*
X142139347Y-106913489D01*
X142164973Y-106910524D01*
X142174051Y-106910000D01*
X142179494Y-106910000D01*
X142184123Y-106908863D01*
X142184736Y-106908789D01*
X142193331Y-106907243D01*
X142211918Y-106905092D01*
X142264487Y-106917614D01*
X142296707Y-106960997D01*
X142300000Y-106983568D01*
X142300000Y-107211070D01*
X142303884Y-107221741D01*
X142309528Y-107225000D01*
X143011070Y-107225000D01*
X143021741Y-107221116D01*
X143025000Y-107215472D01*
X143025000Y-107211070D01*
X143275000Y-107211070D01*
X143278884Y-107221741D01*
X143284528Y-107225000D01*
X143986070Y-107225000D01*
X143996741Y-107221116D01*
X144000000Y-107215472D01*
X144000000Y-106509648D01*
X143999714Y-106504906D01*
X143989756Y-106422611D01*
X143987277Y-106412852D01*
X143935655Y-106282470D01*
X143930419Y-106273177D01*
X143845816Y-106161718D01*
X143838282Y-106154184D01*
X143726823Y-106069581D01*
X143717530Y-106064345D01*
X143587148Y-106012723D01*
X143577389Y-106010244D01*
X143495094Y-106000286D01*
X143490352Y-106000000D01*
X143288930Y-106000000D01*
X143278259Y-106003884D01*
X143275000Y-106009528D01*
X143275000Y-107211070D01*
X143025000Y-107211070D01*
X143025000Y-106013930D01*
X143021116Y-106003259D01*
X143015472Y-106000000D01*
X142809648Y-106000000D01*
X142804906Y-106000286D01*
X142722611Y-106010244D01*
X142712852Y-106012723D01*
X142582470Y-106064345D01*
X142573177Y-106069581D01*
X142461718Y-106154184D01*
X142454861Y-106161041D01*
X142405885Y-106183879D01*
X142353687Y-106169893D01*
X142322692Y-106125627D01*
X142320000Y-106105180D01*
X142320000Y-103915046D01*
X142320399Y-103908702D01*
X142323489Y-103900653D01*
X142320524Y-103875027D01*
X142320000Y-103865949D01*
X142320000Y-103860506D01*
X142318863Y-103855877D01*
X142318789Y-103855264D01*
X142317243Y-103846669D01*
X142315552Y-103832056D01*
X142315552Y-103832055D01*
X142314453Y-103822560D01*
X142309263Y-103814923D01*
X142308890Y-103813711D01*
X142308239Y-103812623D01*
X142306036Y-103803654D01*
X142289980Y-103785443D01*
X142283908Y-103777615D01*
X142270265Y-103757539D01*
X142262127Y-103753176D01*
X142261234Y-103752273D01*
X142260154Y-103751611D01*
X142254047Y-103744684D01*
X142231374Y-103735980D01*
X142222372Y-103731858D01*
X142207381Y-103723820D01*
X142207379Y-103723819D01*
X142200981Y-103720389D01*
X142197902Y-103720000D01*
X142195046Y-103720000D01*
X142188702Y-103719601D01*
X142180653Y-103716511D01*
X142155027Y-103719476D01*
X142145949Y-103720000D01*
X140739000Y-103720000D01*
X140688220Y-103701518D01*
X140661200Y-103654718D01*
X140660000Y-103641000D01*
X140660000Y-102409000D01*
X140678482Y-102358220D01*
X140725282Y-102331200D01*
X140739000Y-102330000D01*
X155261000Y-102330000D01*
X155311780Y-102348482D01*
G37*
%TD.AperFunction*%
%TD*%
M02*
