%TF.GenerationSoftware,KiCad,Pcbnew,(6.0.1-0)*%
%TF.CreationDate,2022-07-02T14:58:06-04:00*%
%TF.ProjectId,Saturn 8pin mini DIN mod,53617475-726e-4203-9870-696e206d696e,rev?*%
%TF.SameCoordinates,Original*%
%TF.FileFunction,Legend,Bot*%
%TF.FilePolarity,Positive*%
%FSLAX46Y46*%
G04 Gerber Fmt 4.6, Leading zero omitted, Abs format (unit mm)*
G04 Created by KiCad (PCBNEW (6.0.1-0)) date 2022-07-02 14:58:06*
%MOMM*%
%LPD*%
G01*
G04 APERTURE LIST*
%ADD10C,0.100000*%
G04 APERTURE END LIST*
D10*
X152456666Y-103153690D02*
X152456666Y-102653690D01*
X152218571Y-102820357D02*
X152218571Y-103153690D01*
X152218571Y-102867976D02*
X152194761Y-102844166D01*
X152147142Y-102820357D01*
X152075714Y-102820357D01*
X152028095Y-102844166D01*
X152004285Y-102891785D01*
X152004285Y-103153690D01*
X151813809Y-102820357D02*
X151694761Y-103153690D01*
X151575714Y-102820357D01*
X151385238Y-103153690D02*
X151385238Y-102820357D01*
X151385238Y-102653690D02*
X151409047Y-102677500D01*
X151385238Y-102701309D01*
X151361428Y-102677500D01*
X151385238Y-102653690D01*
X151385238Y-102701309D01*
X151170952Y-103129880D02*
X151123333Y-103153690D01*
X151028095Y-103153690D01*
X150980476Y-103129880D01*
X150956666Y-103082261D01*
X150956666Y-103058452D01*
X150980476Y-103010833D01*
X151028095Y-102987023D01*
X151099523Y-102987023D01*
X151147142Y-102963214D01*
X151170952Y-102915595D01*
X151170952Y-102891785D01*
X151147142Y-102844166D01*
X151099523Y-102820357D01*
X151028095Y-102820357D01*
X150980476Y-102844166D01*
X150742380Y-103153690D02*
X150742380Y-102820357D01*
X150742380Y-102653690D02*
X150766190Y-102677500D01*
X150742380Y-102701309D01*
X150718571Y-102677500D01*
X150742380Y-102653690D01*
X150742380Y-102701309D01*
X150504285Y-103153690D02*
X150504285Y-102653690D01*
X150504285Y-102844166D02*
X150456666Y-102820357D01*
X150361428Y-102820357D01*
X150313809Y-102844166D01*
X150290000Y-102867976D01*
X150266190Y-102915595D01*
X150266190Y-103058452D01*
X150290000Y-103106071D01*
X150313809Y-103129880D01*
X150361428Y-103153690D01*
X150456666Y-103153690D01*
X150504285Y-103129880D01*
X149980476Y-103153690D02*
X150028095Y-103129880D01*
X150051904Y-103082261D01*
X150051904Y-102653690D01*
X149599523Y-103129880D02*
X149647142Y-103153690D01*
X149742380Y-103153690D01*
X149790000Y-103129880D01*
X149813809Y-103082261D01*
X149813809Y-102891785D01*
X149790000Y-102844166D01*
X149742380Y-102820357D01*
X149647142Y-102820357D01*
X149599523Y-102844166D01*
X149575714Y-102891785D01*
X149575714Y-102939404D01*
X149813809Y-102987023D01*
X149004285Y-103129880D02*
X148932857Y-103153690D01*
X148813809Y-103153690D01*
X148766190Y-103129880D01*
X148742380Y-103106071D01*
X148718571Y-103058452D01*
X148718571Y-103010833D01*
X148742380Y-102963214D01*
X148766190Y-102939404D01*
X148813809Y-102915595D01*
X148909047Y-102891785D01*
X148956666Y-102867976D01*
X148980476Y-102844166D01*
X149004285Y-102796547D01*
X149004285Y-102748928D01*
X148980476Y-102701309D01*
X148956666Y-102677500D01*
X148909047Y-102653690D01*
X148790000Y-102653690D01*
X148718571Y-102677500D01*
X148504285Y-103153690D02*
X148504285Y-102820357D01*
X148504285Y-102653690D02*
X148528095Y-102677500D01*
X148504285Y-102701309D01*
X148480476Y-102677500D01*
X148504285Y-102653690D01*
X148504285Y-102701309D01*
X148051904Y-103153690D02*
X148051904Y-102653690D01*
X148051904Y-103129880D02*
X148099523Y-103153690D01*
X148194761Y-103153690D01*
X148242380Y-103129880D01*
X148266190Y-103106071D01*
X148290000Y-103058452D01*
X148290000Y-102915595D01*
X148266190Y-102867976D01*
X148242380Y-102844166D01*
X148194761Y-102820357D01*
X148099523Y-102820357D01*
X148051904Y-102844166D01*
X147623333Y-103129880D02*
X147670952Y-103153690D01*
X147766190Y-103153690D01*
X147813809Y-103129880D01*
X147837619Y-103082261D01*
X147837619Y-102891785D01*
X147813809Y-102844166D01*
X147766190Y-102820357D01*
X147670952Y-102820357D01*
X147623333Y-102844166D01*
X147599523Y-102891785D01*
X147599523Y-102939404D01*
X147837619Y-102987023D01*
X153266190Y-103934880D02*
X153194761Y-103958690D01*
X153075714Y-103958690D01*
X153028095Y-103934880D01*
X153004285Y-103911071D01*
X152980476Y-103863452D01*
X152980476Y-103815833D01*
X153004285Y-103768214D01*
X153028095Y-103744404D01*
X153075714Y-103720595D01*
X153170952Y-103696785D01*
X153218571Y-103672976D01*
X153242380Y-103649166D01*
X153266190Y-103601547D01*
X153266190Y-103553928D01*
X153242380Y-103506309D01*
X153218571Y-103482500D01*
X153170952Y-103458690D01*
X153051904Y-103458690D01*
X152980476Y-103482500D01*
X152766190Y-103958690D02*
X152766190Y-103458690D01*
X152551904Y-103958690D02*
X152551904Y-103696785D01*
X152575714Y-103649166D01*
X152623333Y-103625357D01*
X152694761Y-103625357D01*
X152742380Y-103649166D01*
X152766190Y-103672976D01*
X152242380Y-103958690D02*
X152290000Y-103934880D01*
X152313809Y-103911071D01*
X152337619Y-103863452D01*
X152337619Y-103720595D01*
X152313809Y-103672976D01*
X152290000Y-103649166D01*
X152242380Y-103625357D01*
X152170952Y-103625357D01*
X152123333Y-103649166D01*
X152099523Y-103672976D01*
X152075714Y-103720595D01*
X152075714Y-103863452D01*
X152099523Y-103911071D01*
X152123333Y-103934880D01*
X152170952Y-103958690D01*
X152242380Y-103958690D01*
X151647142Y-103625357D02*
X151647142Y-103958690D01*
X151861428Y-103625357D02*
X151861428Y-103887261D01*
X151837619Y-103934880D01*
X151790000Y-103958690D01*
X151718571Y-103958690D01*
X151670952Y-103934880D01*
X151647142Y-103911071D01*
X151337619Y-103958690D02*
X151385238Y-103934880D01*
X151409047Y-103887261D01*
X151409047Y-103458690D01*
X150932857Y-103958690D02*
X150932857Y-103458690D01*
X150932857Y-103934880D02*
X150980476Y-103958690D01*
X151075714Y-103958690D01*
X151123333Y-103934880D01*
X151147142Y-103911071D01*
X151170952Y-103863452D01*
X151170952Y-103720595D01*
X151147142Y-103672976D01*
X151123333Y-103649166D01*
X151075714Y-103625357D01*
X150980476Y-103625357D01*
X150932857Y-103649166D01*
X150694761Y-103625357D02*
X150694761Y-103958690D01*
X150694761Y-103672976D02*
X150670952Y-103649166D01*
X150623333Y-103625357D01*
X150551904Y-103625357D01*
X150504285Y-103649166D01*
X150480476Y-103696785D01*
X150480476Y-103958690D01*
X150218571Y-103458690D02*
X150266190Y-103553928D01*
X150075714Y-103625357D02*
X149885238Y-103625357D01*
X150004285Y-103458690D02*
X150004285Y-103887261D01*
X149980476Y-103934880D01*
X149932857Y-103958690D01*
X149885238Y-103958690D01*
X149361428Y-103934880D02*
X149313809Y-103958690D01*
X149218571Y-103958690D01*
X149170952Y-103934880D01*
X149147142Y-103887261D01*
X149147142Y-103863452D01*
X149170952Y-103815833D01*
X149218571Y-103792023D01*
X149290000Y-103792023D01*
X149337619Y-103768214D01*
X149361428Y-103720595D01*
X149361428Y-103696785D01*
X149337619Y-103649166D01*
X149290000Y-103625357D01*
X149218571Y-103625357D01*
X149170952Y-103649166D01*
X148742380Y-103934880D02*
X148790000Y-103958690D01*
X148885238Y-103958690D01*
X148932857Y-103934880D01*
X148956666Y-103887261D01*
X148956666Y-103696785D01*
X148932857Y-103649166D01*
X148885238Y-103625357D01*
X148790000Y-103625357D01*
X148742380Y-103649166D01*
X148718571Y-103696785D01*
X148718571Y-103744404D01*
X148956666Y-103792023D01*
X148313809Y-103934880D02*
X148361428Y-103958690D01*
X148456666Y-103958690D01*
X148504285Y-103934880D01*
X148528095Y-103887261D01*
X148528095Y-103696785D01*
X148504285Y-103649166D01*
X148456666Y-103625357D01*
X148361428Y-103625357D01*
X148313809Y-103649166D01*
X148290000Y-103696785D01*
X148290000Y-103744404D01*
X148528095Y-103792023D01*
X147694761Y-103958690D02*
X147694761Y-103625357D01*
X147694761Y-103672976D02*
X147670952Y-103649166D01*
X147623333Y-103625357D01*
X147551904Y-103625357D01*
X147504285Y-103649166D01*
X147480476Y-103696785D01*
X147480476Y-103958690D01*
X147480476Y-103696785D02*
X147456666Y-103649166D01*
X147409047Y-103625357D01*
X147337619Y-103625357D01*
X147290000Y-103649166D01*
X147266190Y-103696785D01*
X147266190Y-103958690D01*
X146837619Y-103934880D02*
X146885238Y-103958690D01*
X146980476Y-103958690D01*
X147028095Y-103934880D01*
X147051904Y-103887261D01*
X147051904Y-103696785D01*
X147028095Y-103649166D01*
X146980476Y-103625357D01*
X146885238Y-103625357D01*
X146837619Y-103649166D01*
X146813809Y-103696785D01*
X146813809Y-103744404D01*
X147051904Y-103792023D01*
M02*
